<svg xmlns="http://www.w3.org/2000/svg" width="27" height="32" viewBox="0 0 27 32" fill="none"><path d="M5.20005 0C2.32006 0 0 2.31999 0 5.20005V26.7999C0 29.6799 2.31999 32 5.20005 32H21.12C24 32 26.32 29.68 26.32 26.7999V10.08C26.32 9.75999 26.2 9.43996 25.9601 9.20003L16.5601 0.32007C16.3202 0.120014 16.04 3.56945e-05 15.72 3.56945e-05L5.20005 0ZM17.76 11.2799H23.96V26.7999C23.96 28.3599 22.7201 29.5998 21.1601 29.5998H5.20019C3.6402 29.5998 2.40028 28.3599 2.40028 26.7999V5.19998C2.40028 3.63998 3.6402 2.40006 5.20019 2.40006H14.5601V8.08003C14.5604 9.87996 15.9603 11.2801 17.7602 11.2801L17.76 11.2799Z" fill="#097AE2"></path><path d="M5.36035 18.9199H20.9203V21.3201H5.36035V18.9199Z" fill="#097AE2"></path><path d="M5.36035 14.1199H14.9203V16.52H5.36035V14.1199Z" fill="#097AE2"></path><path d="M5.36035 23.72H20.9203V26.1201H5.36035V23.72Z" fill="#097AE2"></path></svg>