<svg xmlns="http://www.w3.org/2000/svg" id="e991aa3a-6dea-4202-be2e-fe9bf8e1fac7" data-name="Layer 1" width="198.7308" height="108.3845" viewBox="0 0 198.7308 108.3845"><path d="M99.3718.6161c-42.41,0-76.4615,20.35-99.359,56.0889H0c22.8975,33.33,56.9487,52.2956,99.3589,52.2956,40.3847,0,77.718-19.7867,99.3591-52.2956h.0128C177.09,21.8391,139.7436.6161,99.3718.6161ZM99.3589,103.793c-38.3333,0-69.1153-17.1438-89.82-47.2663h.0128C30.2436,24.21,61.0256,5.8225,99.3718,5.8225A104.0249,104.0249,0,0,1,150.6282,19.35,107.9109,107.9109,0,0,1,189.18,56.5267C169.6154,85.9055,135.859,103.793,99.3589,103.793Z" transform="translate(0 -0.6161)" style="fill-rule:evenodd"></path><path d="M98.9936,27A27,27,0,1,0,126,54,26.9986,26.9986,0,0,0,98.9936,27Zm0,37.2692A10.2692,10.2692,0,1,1,109.2732,54,10.266,10.266,0,0,1,98.9936,64.2692Z" transform="translate(0 -0.6161)" style="fill-rule:evenodd"></path></svg>