<svg xmlns="http://www.w3.org/2000/svg" width="64" height="64" viewBox="0 0 64 64" fill="none"><circle cx="32" cy="32" r="31.5" fill="white" stroke="#CACACA"></circle><path d="M29.8883 20.3416C29.2013 20.3413 28.535 20.1053 28.0013 19.6723C27.4676 19.2397 27.0986 18.6365 26.9565 17.9643C23.9128 19.0653 21.3133 21.1324 19.5547 23.8498C17.7961 26.5673 16.9752 29.7852 17.2173 33.0132C17.4597 36.2408 18.7513 39.3004 20.8957 41.7247C23.04 44.1489 25.9189 45.8053 29.093 46.44C32.2668 47.0748 35.5612 46.6532 38.4734 45.2401C41.3851 43.8267 43.7543 41.4992 45.2192 38.6128C46.684 35.7267 47.1642 32.4404 46.586 29.2555C46.0075 26.0708 44.4032 23.1628 42.0171 20.9757C41.469 20.4778 41.1272 19.7926 41.0583 19.0554C40.9895 18.3182 41.1987 17.5818 41.6452 16.9908C39.7288 15.7535 37.5916 14.8981 35.3508 14.472C35.2819 14.9757 35.0853 15.4534 34.7798 15.8599L32.2771 19.1564V19.1561C31.7085 19.9011 30.8258 20.3392 29.8889 20.3413L29.8883 20.3416ZM20.9936 33.0202C20.5005 33.0082 20.1066 32.6047 20.1066 32.111C20.1066 31.6176 20.5005 31.2142 20.9936 31.2021H22.7032C23.1966 31.2141 23.5901 31.6176 23.5901 32.111C23.5901 32.6047 23.1965 33.0082 22.7032 33.0202H20.9936ZM25.6626 39.6333L24.4539 40.8414C24.2838 41.0146 24.0516 41.1126 23.809 41.1138C23.5664 41.1147 23.3333 41.0188 23.162 40.8471C22.9903 40.6754 22.8947 40.4424 22.8959 40.1998C22.8971 39.9571 22.9954 39.725 23.1689 39.5551L24.3779 38.3468H24.3776C24.7339 37.9977 25.3048 38.0007 25.6572 38.3537C26.0096 38.7064 26.0123 39.2773 25.6626 39.6333L25.6626 39.6333ZM26.0447 26.0719C25.6894 26.4264 25.1142 26.4261 24.7591 26.0713L23.551 24.8623C23.3779 24.6925 23.2799 24.46 23.2786 24.2174C23.2777 23.9748 23.3737 23.7417 23.5453 23.5704C23.717 23.399 23.95 23.3031 24.1927 23.3043C24.4353 23.3058 24.6674 23.4038 24.8373 23.5773L26.0457 24.7863L26.0454 24.786C26.4001 25.1414 26.3998 25.7168 26.0448 26.0719L26.0447 26.0719ZM32.9303 43.6804C32.9363 43.9252 32.8431 44.1621 32.672 44.3374C32.5009 44.513 32.2664 44.6116 32.0214 44.6116C31.7763 44.6116 31.5418 44.513 31.3707 44.3374C31.1997 44.1621 31.1065 43.9252 31.1125 43.6804V41.9709C31.1064 41.7261 31.1997 41.4892 31.3707 41.3139C31.5418 41.1386 31.7763 41.0397 32.0214 41.0397C32.2664 41.0397 32.5009 41.1386 32.672 41.3139C32.8431 41.4892 32.9363 41.7261 32.9303 41.9709V43.6804ZM43.2628 31.202C43.7562 31.214 44.1497 31.6175 44.1497 32.1109C44.1497 32.6046 43.7562 33.0081 43.2628 33.0201H41.5535C41.3085 33.0258 41.0716 32.9329 40.8963 32.7618C40.721 32.5908 40.6221 32.3559 40.6221 32.1109C40.6221 31.8662 40.721 31.6313 40.8963 31.4603C41.0716 31.2892 41.3085 31.196 41.5535 31.202L43.2628 31.202ZM38.3977 24.3258L39.6067 23.1177C39.7766 22.9445 40.0087 22.8465 40.2513 22.8453C40.494 22.8444 40.727 22.9403 40.8987 23.112C41.0701 23.2837 41.166 23.5167 41.1645 23.7593C41.1633 24.002 41.0649 24.2341 40.8918 24.4039L39.6828 25.612C39.5129 25.7852 39.2808 25.8832 39.0382 25.8844C38.7955 25.8853 38.5625 25.7894 38.3908 25.6177C38.2194 25.446 38.1238 25.213 38.125 24.9704C38.1262 24.7277 38.2246 24.4956 38.3977 24.3258ZM38.0887 38.1143C38.4443 37.7604 39.0192 37.7604 39.3749 38.1143L40.5839 39.3232C40.9308 39.6798 40.9269 40.2489 40.5752 40.6008C40.2234 40.9526 39.6542 40.9565 39.2976 40.6095L38.0886 39.4005C37.7341 39.0451 37.7341 38.47 38.0886 38.1143L38.0887 38.1143ZM32.9301 23.7608V30.6608L35.0032 28.6719C35.1758 28.4975 35.4115 28.4004 35.6566 28.4022C35.9019 28.404 36.1358 28.5047 36.3057 28.6818C36.4756 28.8586 36.5667 29.0967 36.5586 29.3418C36.5501 29.5868 36.4434 29.818 36.2621 29.9834L32.6508 33.4495C32.3883 33.702 32.0002 33.7733 31.6649 33.6302C31.3296 33.4873 31.1123 33.1581 31.1126 32.7937V23.7605C31.1246 23.2671 31.5278 22.8735 32.0215 22.8735C32.5149 22.8735 32.9184 23.2671 32.9305 23.7605L32.9301 23.7608Z" fill="#666666"></path><path d="M44.8377 17.8985C44.5274 17.6138 44.0887 17.5164 43.687 17.643C43.2853 17.7695 42.982 18.1009 42.8905 18.5119C42.7994 18.9229 42.9344 19.3513 43.2447 19.636C46.037 22.1965 47.872 25.6334 48.4456 29.3782C49.019 33.123 48.2971 36.9517 46.3993 40.2303C44.5012 43.5094 41.5408 46.0422 38.008 47.4098C34.4749 48.7776 30.5806 48.8985 26.9696 47.7523C23.3586 46.6061 20.2467 44.2615 18.1496 41.1067C16.0521 37.9515 15.0942 34.1751 15.4346 30.4016C15.7749 26.6285 17.3931 23.0843 20.0216 20.3554C22.65 17.6266 26.1311 15.877 29.8892 15.3956L28.9511 16.6314C28.6964 16.9666 28.6399 17.4122 28.8028 17.8006C28.9658 18.1888 29.3236 18.4606 29.7415 18.5135C30.1591 18.5664 30.5735 18.3923 30.8281 18.0571L33.3317 14.76C33.5064 14.53 33.5903 14.2437 33.568 13.9557C33.5455 13.6677 33.418 13.398 33.2099 13.1974L30.2249 10.329C29.9213 10.0371 29.4853 9.92946 29.0806 10.0464C28.6762 10.1634 28.3647 10.4875 28.2637 10.8961C28.1627 11.305 28.2878 11.7368 28.5912 12.0284L29.6528 13.0486V13.0489C25.3557 13.5838 21.37 15.5703 18.3566 18.6797C15.3431 21.7892 13.4816 25.8347 13.0815 30.1468C12.681 34.4584 13.7655 38.7775 16.1549 42.389C18.5446 46.0003 22.0961 48.6867 26.2211 50.004C30.3462 51.3208 34.7971 51.1895 38.8373 49.6311C42.8773 48.0728 46.264 45.181 48.4363 41.4353C50.6087 37.6893 51.4361 33.3134 50.7818 29.0338C50.1276 24.7533 48.0308 20.8241 44.8386 17.8985L44.8377 17.8985Z" fill="#666666"></path></svg>