<svg xmlns="http://www.w3.org/2000/svg" width="40" height="42" viewBox="0 0 40 42" fill="none"><rect y="1" width="40" height="40" fill="white"></rect><path d="M16.8459 1.00143C16.8173 1.0046 16.7888 1.00935 16.7606 1.01569C16.3752 1.06862 16.0662 1.36116 15.9923 1.74339C15.9185 2.12563 16.096 2.5123 16.4341 2.70528L18.2515 3.79845C8.618 4.50745 1 12.5581 1 22.3708C1 32.6485 9.35148 41 19.6292 41C29.9069 41 38.2584 32.6485 38.2584 22.3708C38.2584 17.8446 36.6479 13.6607 33.9559 10.429C33.8069 10.2274 33.5816 10.0965 33.3328 10.0667C33.084 10.0373 32.8339 10.1114 32.6418 10.2721C32.4498 10.4331 32.3325 10.6661 32.3179 10.9161C32.303 11.1662 32.3924 11.4112 32.5645 11.5935C34.991 14.5061 36.4407 18.2743 36.4407 22.3701C36.4407 31.6661 28.9247 39.1818 19.629 39.1818C10.3333 39.1818 2.81729 31.6658 2.81729 22.3701C2.81729 13.6162 9.48484 6.43636 18.0249 5.62985L16.4344 6.59522C16.0031 6.85385 15.8633 7.41358 16.1219 7.84458C16.3809 8.27594 16.9403 8.41571 17.3716 8.15709L21.9153 5.43071C22.1904 5.26685 22.3593 4.97019 22.3593 4.64976C22.3593 4.32964 22.1904 4.03267 21.9153 3.86881L17.3716 1.14275C17.215 1.04291 17.0318 0.993149 16.8461 1.00076L16.8459 1.00143ZM19.629 10.1034C12.8644 10.1034 7.36096 15.6065 7.36096 22.3714C7.36096 29.1359 12.8644 34.6394 19.629 34.6394C26.3936 34.6394 31.8969 29.136 31.8969 22.3714C31.8969 15.6066 26.3936 10.1034 19.629 10.1034ZM19.629 11.9208C25.4113 11.9208 30.0795 16.5887 30.0795 22.3713C30.0795 28.1536 25.4112 32.8218 19.629 32.8218C13.8467 32.8218 9.17844 28.1535 9.17844 22.3713C9.17844 16.5886 13.8467 11.9208 19.629 11.9208ZM19.5294 14.6329C19.0613 14.6842 18.7101 15.0848 18.7203 15.5558V22.3713C18.7203 22.7019 18.8997 23.0062 19.1887 23.1666L23.2782 25.4384C23.7172 25.6815 24.2703 25.5224 24.5134 25.0834C24.7565 24.6441 24.5977 24.0911 24.1584 23.848L20.5376 21.8315V15.5557C20.5414 15.3098 20.4454 15.0727 20.2717 14.8987C20.0977 14.725 19.8606 14.629 19.6147 14.6328C19.5865 14.6315 19.558 14.6315 19.5294 14.6328L19.5294 14.6329Z" fill="#666666" stroke="#666666" stroke-width="0.5"></path></svg>