<svg xmlns="http://www.w3.org/2000/svg" width="24" height="23" viewBox="0 0 24 23" fill="none"><path d="M21.0909 2.55236C21.0909 1.1552 19.9357 0 18.5385 0H5.37348C3.97633 0 2.82112 1.1552 2.82112 2.55236V21.0909H0V22.1655H23.6433V21.0909H21.091L21.0909 2.55236ZM3.89573 2.55236C3.89573 1.74629 4.56741 1.0746 5.37348 1.0746H18.5385C19.3446 1.0746 20.0163 1.74629 20.0163 2.55236V21.0909H15.8518V18.6729C15.8518 17.2757 14.6966 16.1205 13.2994 16.1205H10.6127C9.21552 16.1205 8.06032 17.2757 8.06032 18.6729V21.0909H3.89582L3.89573 2.55236ZM14.777 21.0909H9.13487V18.6729C9.13487 17.8668 9.80655 17.1951 10.6126 17.1951H13.2994C14.1054 17.1951 14.7771 17.8668 14.7771 18.6729L14.777 21.0909Z" fill="#008E48"></path><path d="M7.46837 8.06028H9.88634C10.6386 8.06028 11.2297 7.46919 11.2297 6.71691V4.29894C11.2297 3.54665 10.6386 2.95557 9.88634 2.95557H7.46837C6.71608 2.95557 6.125 3.54665 6.125 4.29894V6.71691C6.125 7.46919 6.71608 8.06028 7.46837 8.06028ZM7.19962 4.29874C7.19962 4.13757 7.30701 4.02999 7.46837 4.02999H9.88634C10.0475 4.02999 10.1551 4.13738 10.1551 4.29874V6.71671C10.1551 6.87789 10.0477 6.98547 9.88634 6.98547H7.46837C7.30719 6.98547 7.19962 6.87808 7.19962 6.71671V4.29874Z" fill="#008E48"></path><path d="M13.9176 8.06028H16.3356C17.0878 8.06028 17.6789 7.46919 17.6789 6.71691V4.29894C17.6789 3.54665 17.0878 2.95557 16.3356 2.95557H13.9176C13.1653 2.95557 12.5742 3.54665 12.5742 4.29894V6.71691C12.5742 7.46919 13.1653 8.06028 13.9176 8.06028ZM13.6488 4.29874C13.6488 4.13757 13.7562 4.02999 13.9176 4.02999H16.3356C16.4967 4.02999 16.6043 4.13738 16.6043 4.29874V6.71671C16.6043 6.87789 16.4969 6.98547 16.3356 6.98547H13.9176C13.7564 6.98547 13.6488 6.87808 13.6488 6.71671V4.29874Z" fill="#008E48"></path><path d="M9.88634 14.2395C10.6386 14.2395 11.2297 13.6484 11.2297 12.8961V10.4781C11.2297 9.72585 10.6386 9.13477 9.88634 9.13477H7.46837C6.71608 9.13477 6.125 9.72585 6.125 10.4781V12.8961C6.125 13.6484 6.71608 14.2395 7.46837 14.2395H9.88634ZM7.1996 12.8961V10.4781C7.1996 10.317 7.30699 10.2094 7.46835 10.2094H9.88632C10.0475 10.2094 10.1551 10.3168 10.1551 10.4781V12.8961C10.1551 13.0573 10.0477 13.1649 9.88632 13.1649H7.46835C7.30717 13.1647 7.1996 13.0573 7.1996 12.8961V12.8961Z" fill="#008E48"></path><path d="M13.9176 14.2395H16.3356C17.0878 14.2395 17.6789 13.6484 17.6789 12.8961V10.4781C17.6789 9.72585 17.0878 9.13477 16.3356 9.13477H13.9176C13.1653 9.13477 12.5742 9.72585 12.5742 10.4781V12.8961C12.5742 13.6484 13.1653 14.2395 13.9176 14.2395ZM13.6488 10.4779C13.6488 10.3168 13.7562 10.2092 13.9176 10.2092H16.3356C16.4967 10.2092 16.6043 10.3166 16.6043 10.4779V12.8959C16.6043 13.0571 16.4969 13.1647 16.3356 13.1647H13.9176C13.7564 13.1647 13.6488 13.0573 13.6488 12.8959V10.4779Z" fill="#008E48"></path></svg>