<svg xmlns="http://www.w3.org/2000/svg" width="40" height="40" viewBox="0 0 40 40" fill="none"><circle cx="20" cy="20" r="20" fill="#008E48"></circle><path d="M29.0909 11.5524C29.0909 10.1552 27.9357 9 26.5385 9H13.3735C11.9763 9 10.8211 10.1552 10.8211 11.5524V30.0909H8V31.1655H31.6433V30.0909H29.091L29.0909 11.5524ZM11.8957 11.5524C11.8957 10.7463 12.5674 10.0746 13.3735 10.0746H26.5385C27.3446 10.0746 28.0163 10.7463 28.0163 11.5524V30.0909H23.8518V27.6729C23.8518 26.2757 22.6966 25.1205 21.2994 25.1205H18.6127C17.2155 25.1205 16.0603 26.2757 16.0603 27.6729V30.0909H11.8958L11.8957 11.5524ZM22.777 30.0909H17.1349V27.6729C17.1349 26.8668 17.8066 26.1951 18.6126 26.1951H21.2994C22.1054 26.1951 22.7771 26.8668 22.7771 27.6729L22.777 30.0909Z" fill="white"></path><path d="M15.4684 17.0603H17.8863C18.6386 17.0603 19.2297 16.4692 19.2297 15.7169V13.2989C19.2297 12.5466 18.6386 11.9556 17.8863 11.9556H15.4684C14.7161 11.9556 14.125 12.5466 14.125 13.2989V15.7169C14.125 16.4692 14.7161 17.0603 15.4684 17.0603ZM15.1996 13.2987C15.1996 13.1376 15.307 13.03 15.4684 13.03H17.8863C18.0475 13.03 18.1551 13.1374 18.1551 13.2987V15.7167C18.1551 15.8779 18.0477 15.9855 17.8863 15.9855H15.4684C15.3072 15.9855 15.1996 15.8781 15.1996 15.7167V13.2987Z" fill="white"></path><path d="M21.9176 17.0603H24.3356C25.0878 17.0603 25.6789 16.4692 25.6789 15.7169V13.2989C25.6789 12.5466 25.0878 11.9556 24.3356 11.9556H21.9176C21.1653 11.9556 20.5742 12.5466 20.5742 13.2989V15.7169C20.5742 16.4692 21.1653 17.0603 21.9176 17.0603ZM21.6488 13.2987C21.6488 13.1376 21.7562 13.03 21.9176 13.03H24.3356C24.4967 13.03 24.6043 13.1374 24.6043 13.2987V15.7167C24.6043 15.8779 24.4969 15.9855 24.3356 15.9855H21.9176C21.7564 15.9855 21.6488 15.8781 21.6488 15.7167V13.2987Z" fill="white"></path><path d="M17.8863 23.2395C18.6386 23.2395 19.2297 22.6484 19.2297 21.8961V19.4781C19.2297 18.7258 18.6386 18.1348 17.8863 18.1348H15.4684C14.7161 18.1348 14.125 18.7258 14.125 19.4781V21.8961C14.125 22.6484 14.7161 23.2395 15.4684 23.2395H17.8863ZM15.1996 21.8961V19.4781C15.1996 19.317 15.307 19.2094 15.4684 19.2094H17.8863C18.0475 19.2094 18.1551 19.3168 18.1551 19.4781V21.8961C18.1551 22.0573 18.0477 22.1649 17.8863 22.1649H15.4684C15.3072 22.1647 15.1996 22.0573 15.1996 21.8961Z" fill="white"></path><path d="M21.9176 23.2395H24.3356C25.0878 23.2395 25.6789 22.6484 25.6789 21.8961V19.4781C25.6789 18.7258 25.0878 18.1348 24.3356 18.1348H21.9176C21.1653 18.1348 20.5742 18.7258 20.5742 19.4781V21.8961C20.5742 22.6484 21.1653 23.2395 21.9176 23.2395ZM21.6488 19.4779C21.6488 19.3168 21.7562 19.2092 21.9176 19.2092H24.3356C24.4967 19.2092 24.6043 19.3166 24.6043 19.4779V21.8959C24.6043 22.0571 24.4969 22.1647 24.3356 22.1647H21.9176C21.7564 22.1647 21.6488 22.0573 21.6488 21.8959V19.4779Z" fill="white"></path></svg>