<svg xmlns="http://www.w3.org/2000/svg" width="42" height="42" viewBox="0 0 42 42" fill="none"><circle cx="21" cy="21" r="20.5" fill="white" stroke="#E6E6F4"></circle><path d="M14.7844 19.8501C15.2395 20.0704 15.746 20.1994 16.2832 20.2091C16.2776 20.1121 16.274 20.0151 16.275 19.9176C16.2928 17.7674 17.772 15.969 19.7592 15.4475C19.2783 14.0371 17.9502 13.0133 16.3776 13.0001C14.3897 12.9835 12.759 14.5876 12.7423 16.5759C12.7301 18.014 13.5685 19.2618 14.7845 19.8502L14.7844 19.8501Z" fill="#008E48"></path><path d="M25.6078 19.9945C25.607 20.0923 25.6018 20.1895 25.5946 20.2863C25.6156 20.2851 25.6362 20.2836 25.6574 20.2833C26.1725 20.2741 26.6614 20.1576 27.1037 19.9533C28.33 19.3863 29.19 18.1535 29.203 16.715C29.2202 14.8496 27.8102 13.2977 25.9942 13.0981C25.9676 13.0951 25.9405 13.0956 25.9139 13.0932C25.8199 13.085 25.7263 13.0771 25.6302 13.0764H25.6276H25.625C25.5265 13.0756 25.4293 13.0818 25.3328 13.0887C25.3093 13.0906 25.2847 13.0895 25.2615 13.0917C23.8468 13.2222 22.6675 14.1753 22.2031 15.4689C24.1792 16.025 25.6255 17.846 25.6077 19.9945L25.6078 19.9945Z" fill="#008E48"></path><path d="M28.3122 20.1476C28.0456 20.3569 27.7546 20.5389 27.4403 20.6844C26.8409 20.9617 26.2064 21.0992 25.5553 21.0932C25.5242 21.093 25.4939 21.0881 25.4622 21.0872C25.281 21.801 24.934 22.4624 24.4531 23.0151C25.5747 23.4254 26.5295 24.1604 27.22 25.0953L31.5041 25.1348C31.6687 25.1362 31.8033 25.0041 31.8048 24.8394C31.825 22.6221 30.3433 20.7391 28.3122 20.1476V20.1476Z" fill="#008E48"></path><path d="M17.3808 22.9561C16.909 22.3958 16.5729 21.7288 16.4034 21.012C16.3732 21.0122 16.3438 21.0165 16.3137 21.0163C15.6624 21.0109 15.0308 20.8622 14.4365 20.5748C14.1244 20.4239 13.8367 20.2368 13.5742 20.0226C11.533 20.5785 10.0181 22.4353 10 24.6524C9.9987 24.8171 10.1311 24.9516 10.2959 24.9531L14.5813 24.9885C15.2865 24.0657 16.2534 23.3474 17.3808 22.9561L17.3808 22.9561Z" fill="#008E48"></path><path d="M23.7845 23.645C23.5117 23.856 23.2145 24.0395 22.8948 24.188C22.261 24.4816 21.5908 24.6277 20.9014 24.6219C20.2125 24.6163 19.5443 24.4592 18.9157 24.1551C18.5982 24.0015 18.3042 23.8131 18.0349 23.5974C17.1026 23.838 16.2686 24.3275 15.6152 24.9973C14.7133 25.9217 14.1522 27.1816 14.1406 28.5721C14.1393 28.7481 14.2807 28.8927 14.4571 28.894L27.2743 28.9999C27.4503 29.0013 27.5948 28.8595 27.5961 28.6831C27.6078 27.2928 27.0679 26.0241 26.1816 25.0849C25.5392 24.4045 24.7128 23.9008 23.7843 23.645L23.7845 23.645Z" fill="#008E48"></path><path d="M17.0782 19.9241C17.0776 19.9939 17.0812 20.0628 17.0842 20.1315C17.0965 20.4057 17.1379 20.6716 17.205 20.9277C17.3856 21.6187 17.7534 22.2336 18.2517 22.7175C18.5481 23.0053 18.8893 23.2479 19.2653 23.4299C19.763 23.6705 20.3182 23.8114 20.9067 23.8162C21.4956 23.8211 22.0533 23.6893 22.5547 23.4571C22.9341 23.2813 23.279 23.0446 23.5801 22.7616C24.0866 22.286 24.4647 21.6763 24.6568 20.988C24.7282 20.7316 24.7739 20.465 24.7905 20.1899C24.7946 20.1229 24.7988 20.0557 24.7993 19.9877C24.8141 18.2215 23.6327 16.7221 22.0147 16.2515C21.6823 16.1549 21.3329 16.0982 20.9702 16.095C20.61 16.092 20.2624 16.1425 19.9306 16.2324C18.3026 16.6743 17.093 18.1555 17.0782 19.9241L17.0782 19.9241Z" fill="#008E48"></path></svg>