<svg xmlns="http://www.w3.org/2000/svg" width="56" height="56" viewBox="0 0 56 56" fill="none"><circle cx="28" cy="28" r="28" fill="#008E48"></circle><path fill-rule="evenodd" clip-rule="evenodd" d="M34.8537 38.164C37.553 36.5211 35.3233 32.5306 32.8586 33.5869C36.8489 30.8876 33.7974 27.4841 31.333 28.423C35.4406 25.9583 32.7413 22.203 30.5115 23.0244L39.3133 17.7431C42.0125 16.1002 39.0786 11.9924 36.3793 13.6356L22.4136 22.2029L23.8219 18.4473C25.3475 14.2224 21.8267 9.4106 20.1836 13.6356C18.8926 16.2175 9.73824 32.1789 11.1469 34.5256C13.3766 38.2812 14.9025 40.7456 17.1325 44.501C18.6581 46.9657 32.3891 39.572 34.8543 38.1633L34.8537 38.164Z" fill="white"></path><path fill-rule="evenodd" clip-rule="evenodd" d="M40.0183 32.8827C37.4363 32.7654 35.4412 30.6529 35.4412 28.071C35.3239 24.3154 38.0232 22.4375 40.0183 18.7993C42.0134 22.4376 44.7127 24.3152 44.7127 28.071C44.5954 30.6529 42.6003 32.7654 40.0183 32.8827ZM36.028 28.071C36.028 26.6627 36.3802 25.6063 36.9668 24.6675C35.7931 27.719 36.8495 31.3569 40.3702 32.2962C38.0229 32.5308 36.1453 30.1837 36.0278 28.0713L36.028 28.071Z" fill="white"></path></svg>