<svg xmlns="http://www.w3.org/2000/svg" width="176" height="245" viewBox="0 0 176 245" fill="none"><g opacity="0.04"><path d="M10.6987 96.5622C9.16807 95.4275 8.87123 93.4293 10.0059 91.8987C11.1405 90.3681 13.1387 90.0713 14.6694 91.2059C18.1127 93.7586 22.0733 95.2127 26.3183 96.2842L71.0431 37.5506C69.1166 33.7505 66.2414 30.4332 62.7979 27.8809C61.2674 26.7462 60.9705 24.748 62.1052 23.2174C63.2398 21.6868 65.238 21.39 66.7686 22.5246C83.6513 35.3378 85.9084 64.2797 83.9806 85.6756C89.7785 83.4523 99.8564 80.253 110.849 78.6201C127.17 76.1955 140.421 78.3132 149.271 85.1692C169.499 99.866 167.983 135.498 166.532 148.654C186.491 140.923 215.556 134.903 232.441 147.715C233.972 148.85 234.269 150.848 233.134 152.379C232 153.909 230.001 154.206 228.471 153.071C225.794 151.087 222.88 149.816 219.635 148.596L173.823 209.192C175.601 211.992 177.662 214.41 180.339 216.394C181.87 217.529 182.167 219.527 181.032 221.058C179.898 222.589 177.899 222.885 176.369 221.751C159.102 208.655 157.13 179.328 159.058 157.936C153.26 160.16 142.897 163.741 131.573 165.424C115.251 167.848 102 165.73 93.1508 158.875C73.5895 144.077 74.5875 109.543 75.9388 95.7235C56.3632 103.737 27.916 109.324 10.6968 96.5631L10.6987 96.5622ZM78.0514 73.278L62.6874 93.6039C67.5849 92.1961 72.4324 90.4541 77.2324 88.379C77.5022 85.6164 78.0432 80.0896 78.0517 73.2781L78.0514 73.278ZM82.5422 101.209L91.0997 90.0649C87.535 91.2747 84.9689 92.3377 83.353 92.9179C82.9827 95.0151 82.7131 97.7793 82.5423 101.209L82.5422 101.209ZM101.894 87.0992L82.5593 112.781C82.7845 118.876 83.4398 125.587 85.0965 132.15L120.882 84.278C118.167 84.3412 115.12 84.4538 111.789 84.9486C108.458 85.4434 105.177 86.271 101.896 87.0985L101.894 87.0992ZM95.1588 151.765L143.002 88.8247C139.275 86.6543 134.648 85.2994 129.404 84.3762L87.5632 139.616C89.3053 144.464 91.9468 148.498 95.1564 151.765L95.1588 151.765ZM114.729 159.753L156.002 105.279C154.26 100.432 151.618 96.3979 148.359 92.7973L100.845 155.689C104.572 157.858 109.2 159.213 114.727 159.754L114.729 159.753ZM160.077 144.164L153.27 153.345C155.837 152.284 158.118 151.603 159.734 151.023C159.819 149.308 160.19 147.211 160.077 144.164L160.077 144.164ZM165.493 176.043L185.113 149.979C176.6 152.266 169.52 155.019 166.288 156.18C166.066 159.275 165.157 166.901 165.493 176.044L165.493 176.043ZM212.623 147.252C207.097 146.711 201.001 146.937 195.338 147.778L166.595 185.752C167.436 191.416 168.659 197.361 170.784 202.493L212.623 147.252ZM142.191 156.693L160.393 132.542C160.168 126.447 159.845 119.686 158.188 113.124L122.922 159.899C125.637 159.836 127.968 159.49 130.966 159.045C134.962 158.451 138.576 157.574 142.192 156.695L142.191 156.693ZM52.1259 95.8546L77.4672 62.4718C76.9093 56.4265 76.0185 50.4302 73.7954 44.6338L33.9397 97.1952C39.8008 97.685 46.179 97.0776 52.1255 95.8541L52.1259 95.8546Z" fill="black"></path></g></svg>