<svg xmlns="http://www.w3.org/2000/svg" width="214" height="245" viewBox="0 0 214 245" fill="none"><g opacity="0.04"><path d="M202.821 96.5622C204.351 95.4275 204.648 93.4293 203.514 91.8987C202.379 90.3681 200.381 90.0713 198.85 91.2059C195.407 93.7586 191.446 95.2127 187.201 96.2842L142.476 37.5506C144.403 33.7505 147.278 30.4332 150.722 27.8809C152.252 26.7462 152.549 24.748 151.414 23.2174C150.28 21.6868 148.281 21.39 146.751 22.5246C129.868 35.3378 127.611 64.2797 129.539 85.6756C123.741 83.4523 113.663 80.253 102.671 78.6201C86.3497 76.1955 73.0982 78.3132 64.249 85.1692C44.0206 99.866 45.5361 135.498 46.9875 148.654C27.0286 140.923 -2.03614 134.903 -18.9219 147.715C-20.4525 148.85 -20.7493 150.848 -19.6147 152.379C-18.48 153.909 -16.4818 154.206 -14.9512 153.071C-12.274 151.087 -9.36091 149.816 -6.11577 148.596L39.6965 209.192C37.9186 211.992 35.8572 214.41 33.1801 216.394C31.6495 217.529 31.3527 219.527 32.4873 221.058C33.622 222.589 35.6202 222.885 37.1508 221.751C54.4174 208.655 56.3897 179.328 54.4613 157.936C60.2592 160.16 70.6221 163.741 81.9469 165.424C98.2681 167.848 111.52 165.73 120.369 158.875C139.93 144.077 138.932 109.543 137.581 95.7235C157.156 103.737 185.604 109.324 202.823 96.5631L202.821 96.5622ZM135.468 73.278L150.832 93.6039C145.935 92.1961 141.087 90.4541 136.287 88.379C136.017 85.6164 135.476 80.0896 135.468 73.2781L135.468 73.278ZM130.977 101.209L122.42 90.0649C125.985 91.2747 128.551 92.3377 130.167 92.9179C130.537 95.0151 130.806 97.7793 130.977 101.209L130.977 101.209ZM111.626 87.0992L130.96 112.781C130.735 118.876 130.08 125.587 128.423 132.15L92.6375 84.278C95.3522 84.3412 98.3997 84.4538 101.73 84.9486C105.061 85.4434 108.343 86.271 111.624 87.0985L111.626 87.0992ZM118.361 151.765L70.5173 88.8247C74.244 86.6543 78.8717 85.2994 84.115 84.3762L125.956 139.616C124.214 144.464 121.573 148.498 118.363 151.765L118.361 151.765ZM98.7908 159.753L57.5178 105.279C59.2598 100.432 61.9013 96.3979 65.1604 92.7973L112.674 155.689C108.948 157.858 104.32 159.213 98.793 159.754L98.7908 159.753ZM53.4427 144.164L60.2493 153.345C57.6829 152.284 55.4014 151.603 53.7855 151.023C53.7001 149.308 53.3299 147.211 53.4425 144.164L53.4427 144.164ZM48.0266 176.043L28.4069 149.979C36.9195 152.266 43.9996 155.019 47.2314 156.18C47.4534 159.275 48.3628 166.901 48.0266 176.044L48.0266 176.043ZM0.896134 147.252C6.423 146.711 12.5182 146.937 18.1811 147.778L46.9246 185.752C46.0833 191.416 44.86 197.361 42.7356 202.493L0.896134 147.252ZM71.3285 156.693L53.1267 132.542C53.3519 126.447 53.6744 119.686 55.3311 113.124L90.5974 159.899C87.8827 159.836 85.5516 159.49 82.5538 159.045C78.5573 158.451 74.9432 157.574 71.3277 156.695L71.3285 156.693ZM161.394 95.8546L136.052 62.4718C136.61 56.4265 137.501 50.4302 139.724 44.6338L179.58 97.1952C173.719 97.685 167.341 97.0776 161.394 95.8541L161.394 95.8546Z" fill="black"></path></g></svg>