<svg xmlns="http://www.w3.org/2000/svg" width="42" height="42" viewBox="0 0 42 42" fill="none"><circle cx="21" cy="21" r="20.5" fill="white" stroke="#E6E6F4"></circle><path d="M28.2267 22.1699C28.2631 22.2369 28.3007 22.3032 28.3334 22.3739C28.493 22.7161 28.5968 23.0722 28.6438 23.4181C28.7596 23.4506 28.8736 23.4951 28.9844 23.5542C29.8066 23.9942 30.1165 25.0169 29.6763 25.8395C29.2365 26.6611 28.2135 26.9713 27.3914 26.5313C26.5688 26.0915 26.2595 25.0682 26.6994 24.2464C26.9455 23.7851 27.3756 23.4857 27.8503 23.389C27.7385 22.8181 27.4286 22.1895 26.9319 21.7831C26.7783 21.7518 26.6234 21.7237 26.4667 21.7018C26.4542 21.7 26.4405 21.6991 26.4271 21.6967C26.3216 21.6829 26.2154 21.6701 26.1081 21.6603C26.1076 21.6713 26.1042 21.6823 26.1042 21.6928C26.1024 21.7239 26.0971 21.7548 26.0932 21.7867C26.0741 21.9643 26.0207 22.1367 25.9377 22.3027C25.3803 23.7062 23.575 26.3675 22.5124 27.8784L22.2939 24.7402C22.6042 24.5809 22.8711 24.3173 23.0418 24.012C23.1651 23.7921 23.2403 23.5517 23.2403 23.3077C23.2403 23.3077 22.4475 23.6588 21.6385 23.6588C21.5923 23.6588 21.5462 23.657 21.4999 23.6548C21.4537 23.657 21.4076 23.6588 21.3613 23.6588C20.5522 23.6588 19.7596 23.3077 19.7596 23.3077C19.7596 23.5517 19.835 23.792 19.958 24.012C20.1287 24.3173 20.3961 24.5809 20.706 24.7402L20.4873 27.8784C19.4241 26.3675 17.6198 23.7068 17.0622 22.3027C16.9794 22.1367 16.926 21.9642 16.9061 21.7867C16.9022 21.7548 16.8975 21.7237 16.8957 21.6928C16.8955 21.6823 16.8919 21.6713 16.8919 21.6603C16.7846 21.6701 16.6785 21.6829 16.5724 21.6967C16.5594 21.6989 16.5456 21.7 16.5328 21.7018C16.4797 21.7091 16.4275 21.7188 16.3753 21.7272C15.7843 22.1387 15.3644 22.7921 15.2559 23.3146C15.4408 23.4186 15.5853 23.5888 15.6666 23.7983C16.3691 24.1068 16.9926 24.7981 17.4727 25.8025C17.5436 25.9508 17.5438 26.1203 17.4759 26.2679C17.7735 27.0127 17.9434 27.8268 17.9434 28.5117C17.9434 29.5963 17.8966 30.2755 16.9872 30.456C16.9 30.5413 16.7842 30.5889 16.6624 30.5889H15.9635C15.7056 30.5889 15.4955 30.3793 15.4955 30.1208L15.4957 30.1115L15.4959 30.1103C15.5016 29.8573 15.7095 29.6532 15.9633 29.6532H16.6622C16.7293 29.6532 16.7962 29.6681 16.8575 29.6967C17.0232 29.662 17.0508 29.6146 17.0658 29.5882C17.1532 29.4374 17.1711 29.0649 17.1711 28.5121C17.1711 27.9152 17.0189 27.1999 16.7533 26.541C16.634 26.4882 16.5366 26.3947 16.4806 26.2772C16.0223 25.319 15.4027 24.7237 14.8631 24.7237C14.3123 24.7237 13.6622 25.3663 13.207 26.3609C13.145 26.4963 13.0293 26.6005 12.8893 26.6497C12.6459 27.287 12.5125 27.9461 12.5125 28.5121C12.5125 28.9456 12.5211 29.4217 12.6265 29.5905C12.6426 29.6161 12.6745 29.6679 12.8621 29.7024C12.9267 29.6703 12.9983 29.653 13.0722 29.653H13.7711C14.0195 29.653 14.2237 29.8482 14.2382 30.0932L14.2388 30.0959V30.1207C14.2388 30.3792 14.0288 30.5889 13.7709 30.5889H13.072C12.9568 30.5889 12.8462 30.5458 12.7603 30.4678C12.5097 30.4267 12.1758 30.3278 11.9707 29.9987C11.776 29.6854 11.7407 29.2519 11.7407 28.5115C11.7407 27.8352 11.9004 27.0577 12.1912 26.3152C12.1429 26.1799 12.148 26.0326 12.2079 25.9029C12.4961 25.2729 12.8603 24.7364 13.261 24.3505C13.4947 24.1245 13.7459 23.9481 14.0087 23.8247C14.094 23.5853 14.2637 23.3925 14.4793 23.2882C14.5352 22.895 14.7019 22.4843 14.9531 22.1008C12.0612 23.1722 10 25.9536 10 29.2187C10 33.4112 13.3989 33.4013 17.5912 33.4013H25.4097C29.6021 33.4013 33.0009 33.4112 33.0009 29.2187C33.0005 26.0219 31.0241 23.2882 28.2269 22.1699L28.2267 22.1699Z" fill="#008E48"></path><path d="M15.8311 14.9557C15.8351 15.0103 15.8398 15.0638 15.8449 15.1172C16.2064 19.2111 18.6015 22.3742 21.5028 22.3742C24.4033 22.3742 26.7993 19.2112 27.1607 15.1172C27.1658 15.0638 27.1699 15.0103 27.1744 14.9557C27.2004 14.7782 27.2174 14.5984 27.2276 14.4161C27.2347 14.2917 27.2398 14.1667 27.2398 14.0397C27.2398 13.7286 27.2176 13.4225 27.1746 13.1236C26.7547 10.2227 24.3755 8 21.5027 8C18.6298 8 16.2505 10.2227 15.8312 13.1231C15.7877 13.422 15.7656 13.7283 15.7656 14.0392C15.7656 14.1662 15.7707 14.2912 15.7772 14.4156C15.7883 14.5981 15.8052 14.7779 15.8312 14.9554L15.8311 14.9557Z" fill="#008E48"></path><path d="M29.0327 25.0432C29.0327 25.5096 28.6547 25.8878 28.1883 25.8878C27.7219 25.8878 27.3438 25.5097 27.3438 25.0432C27.3438 24.5768 27.7219 24.1989 28.1883 24.1989C28.6548 24.1989 29.0327 24.5768 29.0327 25.0432Z" fill="#008E48"></path></svg>