<svg xmlns="http://www.w3.org/2000/svg" width="40" height="40" viewBox="0 0 40 40" fill="none"><circle cx="20" cy="20" r="20" fill="#008E48"></circle><path d="M10.9382 11H28.7055C29.5133 11 30.2485 11.3307 30.7811 11.8626C31.3136 12.3951 31.6436 13.1294 31.6436 13.9382V25.8026C31.6436 26.6114 31.3129 27.3457 30.7811 27.8782C30.2485 28.4107 29.5142 28.7408 28.7055 28.7408H10.9382C10.1303 28.7408 9.39511 28.4101 8.86258 27.8782C8.33005 27.3457 8 26.6114 8 25.8026V13.9382C8 13.1294 8.33073 12.3951 8.86258 11.8626C9.39511 11.33 10.1294 11 10.9382 11ZM17.4502 20.5226L9.85083 27.4446C10.1634 27.6524 10.5373 27.7747 10.9379 27.7747H28.7052C29.1058 27.7747 29.4797 27.6533 29.7923 27.4446L22.1929 20.5226C21.5064 21.1022 20.6636 21.392 19.8215 21.392C18.9787 21.392 18.1366 21.1022 17.45 20.5226H17.4502ZM9.20103 26.7307L16.7313 19.871L9.20103 13.0113C9.05233 13.2882 8.96731 13.6038 8.96731 13.9384V25.8028C8.96731 26.1374 9.05233 26.4529 9.20103 26.7299V26.7307ZM22.9123 19.871L30.4426 26.7307C30.5913 26.4538 30.6763 26.1382 30.6763 25.8036V13.9392C30.6763 13.6046 30.5913 13.289 30.4426 13.0121L22.9123 19.8718V19.871ZM9.84992 12.2978L17.7677 19.5106L17.7715 19.5136L17.9924 19.7147C18.512 20.1881 19.1668 20.4249 19.8214 20.4249C20.4762 20.4249 21.1308 20.1882 21.6504 19.7147L21.8713 19.5136L21.8751 19.5106L29.7929 12.2978C29.4803 12.09 29.1064 11.9678 28.7058 11.9678H10.9385C10.5379 11.9678 10.164 12.0891 9.85142 12.2978H9.84992Z" fill="white"></path></svg>