<svg xmlns="http://www.w3.org/2000/svg" width="24" height="18" viewBox="0 0 24 18" fill="none"><path d="M2.93819 0H20.7055C21.5133 0 22.2485 0.330735 22.7811 0.862579C23.3136 1.39511 23.6436 2.12944 23.6436 2.93819V14.8026C23.6436 15.6114 23.3129 16.3457 22.7811 16.8782C22.2485 17.4107 21.5142 17.7408 20.7055 17.7408H2.93819C2.1303 17.7408 1.39511 17.4101 0.862578 16.8782C0.330048 16.3457 0 15.6114 0 14.8026V2.93819C0 2.12944 0.330735 1.39511 0.862578 0.862579C1.39511 0.330049 2.12944 0 2.93819 0V0ZM9.45021 9.52259L1.85083 16.4446C2.1634 16.6524 2.53734 16.7747 2.93792 16.7747H20.7052C21.1058 16.7747 21.4797 16.6533 21.7923 16.4446L14.1929 9.52259C13.5064 10.1022 12.6636 10.392 11.8215 10.392C10.9787 10.392 10.1366 10.1022 9.45003 9.52259H9.45021ZM1.20103 15.7307L8.73132 8.87098L1.20103 2.01127C1.05233 2.2882 0.967305 2.60377 0.967305 2.93838V14.8028C0.967305 15.1374 1.05233 15.4529 1.20103 15.7299V15.7307ZM14.9123 8.87098L22.4426 15.7307C22.5913 15.4538 22.6763 15.1382 22.6763 14.8036V2.93919C22.6763 2.60457 22.5913 2.28903 22.4426 2.01208L14.9123 8.8718V8.87098ZM1.84992 1.2978L9.76766 8.51064L9.77154 8.51364L9.99238 8.71472C10.512 9.18814 11.1668 9.4249 11.8214 9.4249C12.4762 9.4249 13.1308 9.18818 13.6504 8.71472L13.8713 8.51364L13.8751 8.51064L21.7929 1.2978C21.4803 1.09 21.1064 0.967766 20.7058 0.967766H2.93851C2.53793 0.967766 2.16399 1.08912 1.85142 1.2978H1.84992Z" fill="#008E48"></path></svg>