<svg xmlns="http://www.w3.org/2000/svg" width="56" height="56" viewBox="0 0 56 56" fill="none"><circle cx="28" cy="28.001" r="28" fill="#008E48"></circle><path fill-rule="evenodd" clip-rule="evenodd" d="M32.6039 28.9604C31.2434 29.7972 29.6595 30.1973 28.0648 30.1069C26.4719 30.1968 24.8892 29.7966 23.5303 28.9604C21.6521 29.0076 20.078 30.0983 18.8244 31.784C16.4974 34.8895 15.2438 40.0015 15.1328 44.2236H41.0014C40.886 39.9457 39.6067 34.7648 37.2284 31.6724C35.9831 30.0512 34.4388 29.0074 32.6037 28.9605L32.6039 28.9604Z" fill="white"></path><path fill-rule="evenodd" clip-rule="evenodd" d="M35.2737 15.4891C34.8458 12.3663 31.8512 9.83785 27.3977 10.0092C25.882 10.0295 24.4154 10.5478 23.2232 11.4839C22.031 12.4201 21.18 13.7223 20.8011 15.1899C20.2663 17.3545 17.8534 23.6388 15 25.5807C16.6726 26.6245 21.7079 27.771 24.1846 27.6642H24.1849C25.3516 28.3687 26.6936 28.7289 28.0565 28.7035C29.6693 28.7035 30.1656 28.5623 32.005 27.343V27.3433C33.9742 27.3603 35.9398 27.1723 37.8702 26.7829C37.2369 25.5976 35.7354 18.8519 35.2734 15.4891L35.2737 15.4891Z" fill="white"></path></svg>