<svg xmlns="http://www.w3.org/2000/svg" width="46" height="46" viewBox="0 0 46 46" fill="none"><path d="M43.5897 1H2.40988H2.41027C1.63116 1 1 1.63116 1 2.41027V43.5901V43.5897C1 43.9639 1.14835 44.3228 1.41277 44.5872C1.6772 44.8516 2.03606 45 2.41027 45H43.5901H43.5897C43.9639 45 44.3228 44.8516 44.5872 44.5872C44.8516 44.3228 45 43.9639 45 43.5897V2.40988V2.41027C45 2.03606 44.8516 1.6772 44.5872 1.41278C44.3228 1.14835 43.9639 1 43.5897 1ZM42.1795 42.1799H3.82014V3.82054H42.1795V42.1799Z" fill="#666666" stroke="white" stroke-width="1.2"></path><path d="M21.59 11.1535H34.8465V24.4101C34.8465 25.1888 35.4776 25.8203 36.2568 25.8203C37.0355 25.8203 37.667 25.1888 37.667 24.4101V9.74328C37.667 9.36946 37.5183 9.0106 37.2539 8.74618C36.9894 8.48175 36.6306 8.33301 36.2568 8.33301H21.59C20.8112 8.33301 20.1797 8.96456 20.1797 9.74328C20.1797 10.5224 20.8112 11.1535 21.59 11.1535Z" fill="#666666" stroke="white" stroke-width="1.2"></path><path d="M9.7423 37.667H24.4091C25.1878 37.667 25.8194 37.0355 25.8194 36.2568C25.8194 35.4776 25.1878 34.8465 24.4091 34.8465H11.1526V21.59C11.1526 20.8112 10.5214 20.1797 9.7423 20.1797C8.96358 20.1797 8.33203 20.8112 8.33203 21.59V36.2568C8.33203 36.6306 8.48078 36.9894 8.7452 37.2539C9.00963 37.5183 9.36849 37.667 9.7423 37.667Z" fill="#666666" stroke="white" stroke-width="1.2"></path></svg>