<svg xmlns="http://www.w3.org/2000/svg" width="21" height="26" viewBox="0 0 21 26" fill="none"><path d="M17.928 3.07132C13.8321 -1.02377 7.16793 -1.02377 3.07168 3.07132C-1.02389 7.1669 -1.02389 13.8313 3.07168 17.927L9.91234 24.767C10.2369 25.0916 10.7631 25.0916 11.0877 24.767L17.9283 17.9264C22.0239 13.8308 22.0239 7.16635 17.9283 3.07132H17.928ZM16.7526 16.7514L10.4998 23.0043L4.24689 16.7514C0.799266 13.3038 0.799266 7.69396 4.24689 4.24628H4.24665C5.9066 2.59064 8.15513 1.66082 10.4995 1.66082C12.8437 1.66082 15.0925 2.59064 16.7524 4.24628C20.2 7.6939 20.2 13.3031 16.7524 16.7514H16.7526Z" fill="#008E48"></path><path d="M10.4976 5.68165C8.99983 5.68165 7.58708 6.3783 6.67532 7.56645C5.76356 8.75484 5.45629 10.2996 5.84379 11.7463C6.23153 13.1933 7.27009 14.3774 8.65385 14.9506C10.0376 15.5238 11.6092 15.4207 12.9064 14.6718C14.2035 13.923 15.0787 12.6135 15.2741 11.1283C15.4698 9.64333 14.9633 8.15199 13.9043 7.09276C13.0028 6.18623 11.7759 5.67813 10.4976 5.68166L10.4976 5.68165ZM12.7291 12.7308C12.1374 13.3227 11.3346 13.6554 10.4976 13.6554C9.66062 13.6554 8.85808 13.323 8.26617 12.731C7.67423 12.1393 7.34182 11.3366 7.34182 10.4996C7.34182 9.66259 7.67424 8.85982 8.26617 8.26814C8.85786 7.67621 9.66062 7.3438 10.4976 7.3438C11.3346 7.3438 12.1374 7.67621 12.7291 8.26814C13.326 8.85723 13.6617 9.66095 13.662 10.4996C13.662 11.338 13.326 12.1417 12.7291 12.7308Z" fill="#008E48"></path></svg>