<svg xmlns="http://www.w3.org/2000/svg" width="40" height="40" viewBox="0 0 40 40" fill="none"><circle cx="20" cy="20" r="20" fill="#008E48"></circle><path d="M27.928 10.0713C23.8321 5.97623 17.1679 5.97623 13.0717 10.0713C8.97611 14.1669 8.97611 20.8313 13.0717 24.927L19.9123 31.767C20.2369 32.0916 20.7631 32.0916 21.0877 31.767L27.9283 24.9264C32.0239 20.8308 32.0239 14.1664 27.9283 10.0713H27.928ZM26.7526 23.7514L20.4998 30.0043L14.2469 23.7514C10.7993 20.3038 10.7993 14.694 14.2469 11.2463H14.2466C15.9066 9.59064 18.1551 8.66082 20.4995 8.66082C22.8437 8.66082 25.0925 9.59064 26.7524 11.2463C30.2 14.6939 30.2 20.3031 26.7524 23.7514H26.7526Z" fill="white"></path><path d="M20.4976 12.6817C18.9998 12.6817 17.5871 13.3783 16.6753 14.5664C15.7636 15.7548 15.4563 17.2996 15.8438 18.7463C16.2315 20.1933 17.2701 21.3774 18.6538 21.9506C20.0376 22.5238 21.6092 22.4207 22.9064 21.6718C24.2035 20.923 25.0787 19.6135 25.2741 18.1283C25.4698 16.6433 24.9633 15.152 23.9043 14.0928C23.0028 13.1862 21.7759 12.6781 20.4976 12.6817L20.4976 12.6817ZM22.7291 19.7308C22.1374 20.3227 21.3346 20.6554 20.4976 20.6554C19.6606 20.6554 18.8581 20.323 18.2662 19.731C17.6742 19.1393 17.3418 18.3366 17.3418 17.4996C17.3418 16.6626 17.6742 15.8598 18.2662 15.2681C18.8579 14.6762 19.6606 14.3438 20.4976 14.3438C21.3346 14.3438 22.1374 14.6762 22.7291 15.2681C23.326 15.8572 23.6617 16.661 23.662 17.4996C23.662 18.338 23.326 19.1417 22.7291 19.7308Z" fill="white"></path></svg>