<svg xmlns="http://www.w3.org/2000/svg" width="286" height="248" viewBox="0 0 286 248" fill="none"><mask id="mask0_8165_3040" style="mask-type:alpha" maskUnits="userSpaceOnUse" x="0" y="0" width="286" height="248"><rect width="286" height="248" fill="#F3F6FA"></rect></mask><g mask="url(#mask0_8165_3040)"><path opacity="0.6" d="M310.585 247.58L265.442 153.12C263.511 149.101 262.519 144.769 262.519 140.333V67.0089H264.085C266.746 67.0089 268.886 64.8692 268.886 62.2076C268.886 59.546 266.746 57.4062 264.085 57.4062H262.363H234.807H233.189C230.528 57.4062 228.388 59.546 228.388 62.2076C228.388 64.8692 230.528 67.0089 233.189 67.0089H234.755V140.333C234.755 144.769 233.763 149.153 231.832 153.12L186.69 247.58C181.836 257.705 189.247 269.447 200.467 269.447H296.702C308.079 269.499 315.438 257.757 310.585 247.58Z" fill="#E9E9F9"></path><path opacity="0.6" d="M290.752 217.78C280.784 219.398 269.72 219.398 259.23 215.432C240.547 208.334 221.394 209.169 210.017 210.683L191.334 249.772C189.768 253.008 189.977 256.609 191.908 259.635C193.839 262.662 196.97 264.385 200.571 264.385H296.806C300.407 264.385 303.538 262.662 305.469 259.635C307.4 256.609 307.609 253.008 306.043 249.772L290.752 217.78Z" fill="white"></path><path opacity="0.6" d="M236.269 210.319C236.269 243.771 208.505 270.701 174.791 269.448C144.678 268.3 119.941 244.189 118.115 214.128C117.697 207.24 118.428 200.56 120.202 194.349C125.212 176.449 138.416 162.045 155.533 155.312C159.813 153.642 162.631 149.519 162.631 144.927V102.498H163.153C160.439 102.498 158.299 100.254 158.404 97.4877C158.56 94.9305 160.857 92.9995 163.414 92.9995H190.917C193.474 92.9995 195.771 94.9305 195.927 97.4877C196.084 100.201 193.892 102.498 191.178 102.498H191.7V144.875C191.7 149.467 194.518 153.59 198.745 155.26C215.863 161.992 229.067 176.449 234.129 194.297C235.538 199.411 236.269 204.787 236.269 210.319Z" fill="#E9E9F9"></path><path opacity="0.6" d="M167.692 212.928C148.695 204.369 131.682 205.152 121.975 206.77C121.818 209.118 121.766 211.467 121.923 213.867C123.645 241.788 146.921 264.542 174.894 265.586C175.624 265.586 176.355 265.638 177.086 265.638C207.564 265.638 232.405 240.849 232.405 210.319C232.405 207.709 232.196 205.152 231.883 202.595C210.799 205.517 192.794 224.253 167.692 212.928Z" fill="white"></path><circle opacity="0.6" cx="173.508" cy="76.6878" r="11.1014" fill="white"></circle><circle opacity="0.6" cx="192.205" cy="61.4966" r="7.5957" fill="white"></circle></g></svg>