<svg xmlns="http://www.w3.org/2000/svg" width="735" height="460" viewBox="0 0 735 460" fill="none"><g opacity="0.08"><g opacity="0.3"><g opacity="0.3"><g opacity="0.3"><path opacity="0.3" d="M522.7 233.833V298.115L522.11 298.41L467.264 330.256L466.674 329.961L411.828 298.115V233.833L412.418 233.538L467.559 201.691L468.149 201.986L522.7 233.833ZM520.046 296.64V235.307L466.969 204.64L413.892 235.307V296.64L466.969 327.307L520.046 296.64Z" fill="#006380"></path></g><g opacity="0.3"><path opacity="0.3" d="M511.536 64.8727V116.18L510.946 116.475L467.01 141.834L466.42 141.54L422.484 116.18V64.8727L423.074 64.5778L467.01 39.2188L467.6 39.5136L511.536 64.8727ZM509.472 115.296V66.0521L467.01 41.5777L424.548 66.0521V115.001L467.01 139.475L509.472 115.296Z" fill="#006380"></path></g><g opacity="0.3"><path opacity="0.3" d="M646.25 171.913V226.17L645.66 226.76L599.07 253.593L598.48 253.298L551.891 226.465V171.913L552.48 171.619L599.07 144.785L599.66 145.08L646.25 171.913ZM643.891 224.99V173.093L599.07 147.144L554.25 173.093V224.99L599.07 250.939L643.891 224.99Z" fill="#006380"></path></g><g opacity="0.3"><path opacity="0.3" d="M734.757 240.322V271.579L734.462 271.873L707.628 287.502L707.333 287.207L680.5 271.873V240.322L680.795 240.027L707.628 224.694L707.923 224.989L734.757 240.322ZM733.577 270.989V241.207L707.628 226.168L681.679 241.207V270.989L707.628 286.027L733.577 270.989Z" fill="#006380"></path></g><g opacity="0.3"><path opacity="0.3" d="M621.797 319.348V345.887L621.502 346.182L598.797 359.156L598.502 358.861L575.797 345.887V319.348L576.092 319.053L598.797 306.079L599.092 306.374L621.797 319.348ZM620.618 345.297V319.938L598.797 307.259L576.976 319.938V345.297L598.797 357.977L620.618 345.297Z" fill="#006380"></path></g><g opacity="0.3"><path opacity="0.3" d="M623.839 67.8202V98.1921L623.544 98.4869L597.595 113.525L597.3 113.231L571.352 98.1921V67.8202L571.646 67.5253L597.595 52.4868L597.89 52.7817L623.839 67.8202ZM622.659 97.3074V68.7048L597.595 54.2561L572.531 68.7048V97.3074L597.595 111.756L622.659 97.3074Z" fill="#006380"></path></g><g opacity="0.3"><path opacity="0.3" d="M544.802 15.0385V45.4104L544.507 45.7052L518.853 60.4489L518.558 60.154L492.609 45.1155V15.0385L492.904 14.7436L518.853 0L519.148 0.294872L544.802 15.0385ZM543.622 44.5257V15.9231L518.853 1.47436L493.789 15.9231V44.8206L518.853 58.9745L543.622 44.5257Z" fill="#006380"></path></g><g opacity="0.3"><path opacity="0.3" d="M375.883 23.2931V56.9086L375.588 57.2034L346.69 74.0112L346.101 73.7163L317.203 56.9086V23.2931L317.498 22.9982L346.395 6.48535L346.69 6.78022L375.883 23.2931ZM374.408 56.3188V24.1777L346.69 7.95971L318.972 24.1777V56.3188L346.69 72.5368L374.408 56.3188Z" fill="#006380"></path></g><g opacity="0.3"><path opacity="0.3" d="M272.063 201.694V220.566H271.768L255.845 230.001H255.55L239.332 220.566V201.694H239.627L255.845 192.258H256.14L272.063 201.694ZM271.473 219.976V201.989L255.845 192.848L240.217 201.989V219.976L255.845 229.117L271.473 219.976Z" fill="#006380"></path></g><g opacity="0.3"><path opacity="0.3" d="M358.777 325.539V352.668L358.482 352.962L335.482 366.232L335.188 365.937L312.188 352.668V325.539L312.482 325.244L335.482 311.975L335.777 312.27L358.777 325.539ZM357.598 352.078V326.424L335.188 313.449L312.777 326.424V352.078L335.188 365.052L357.598 352.078Z" fill="#006380"></path></g><g opacity="0.3"><path opacity="0.3" d="M437.214 391.298V420.785L436.919 421.08L411.56 435.529L411.265 435.234L385.906 420.785V391.298L386.201 391.003L411.56 376.554L411.855 376.849L437.214 391.298ZM436.035 419.9V391.888L411.56 377.734L387.086 391.888V419.9L411.56 434.054L436.035 419.9Z" fill="#006380"></path></g><g opacity="0.3"><path opacity="0.3" d="M385.009 138.588V182.818L384.714 183.113L346.675 204.934L346.085 204.639L308.047 182.818V138.588L308.342 138.293L346.38 116.472L346.97 116.767L385.009 138.588ZM382.945 181.934V139.472L346.38 118.241L309.816 139.472V181.639L346.38 202.87L382.945 181.934Z" fill="#006380"></path></g><g opacity="0.3"><path opacity="0.3" d="M414.487 297.527L358.166 327.014L357.281 325.539L413.602 296.052L414.487 297.527Z" fill="#006380"></path></g><g opacity="0.3"><path opacity="0.3" d="M309.519 182.528L271.48 202.579L270.891 201.399L308.929 181.348L309.519 182.528Z" fill="#006380"></path></g><g opacity="0.3"><path opacity="0.3" d="M467.847 141.244H466.078V204.936H467.847V141.244Z" fill="#006380"></path></g><g opacity="0.3"><path opacity="0.3" d="M577.258 319.052L576.668 320.822L519.758 297.527L520.348 296.052L577.258 319.052Z" fill="#006380"></path></g><g opacity="0.3"><path opacity="0.3" d="M599.66 251.824H597.891V307.26H599.66V251.824Z" fill="#006380"></path></g><g opacity="0.3"><path opacity="0.3" d="M681.945 240.321L681.355 241.795L644.496 225.872L645.086 224.397L681.945 240.321Z" fill="#006380"></path></g><g opacity="0.3"><path opacity="0.3" d="M424.835 115.885L384.142 139.77L383.258 138.59L424.245 114.411L424.835 115.885Z" fill="#006380"></path></g><g opacity="0.3"><path opacity="0.3" d="M346.957 72.8335H345.188V117.949H346.957V72.8335Z" fill="#006380"></path></g></g><g opacity="0.3"><g opacity="0.3"><path opacity="0.3" d="M103.083 258.308V322.59L102.493 322.885L47.647 354.731L47.0572 354.436L-7.78906 322.59V258.308L-7.19932 258.013L47.9418 226.167L48.5316 226.461L103.083 258.308ZM100.724 321.115V260.077L47.647 229.41L-5.43008 260.077V321.41L47.647 352.077L100.724 321.115Z" fill="#006380"></path></g><g opacity="0.3"><path opacity="0.3" d="M92.2038 89.3429V140.651L91.6141 141.24L47.6781 166.599L47.0883 166.305L3.15234 140.946V89.3429L3.74209 89.048L47.6781 63.689L48.2678 63.9838L92.2038 89.3429ZM90.1397 139.766V90.8172L47.6781 66.0479L5.21646 90.8172V139.766L47.6781 164.24L90.1397 139.766Z" fill="#006380"></path></g><g opacity="0.3"><path opacity="0.3" d="M226.611 196.384V250.64L226.021 250.935L179.432 277.768L178.842 277.474L132.547 250.935V196.384L133.137 196.089L179.726 169.255L180.316 169.55L226.611 196.384ZM224.547 249.461V197.563L179.726 171.614L134.611 197.563V249.461L179.432 275.409L224.547 249.461Z" fill="#006380"></path></g><g opacity="0.3"><path opacity="0.3" d="M315.069 264.793V296.05L314.774 296.345L287.941 311.678L287.646 311.383L260.812 296.05V264.793L261.107 264.498L287.941 249.165L288.236 249.46L315.069 264.793ZM313.89 295.46V265.678L287.941 250.639L262.287 265.678V295.46L288.236 310.499L313.89 295.46Z" fill="#006380"></path></g><g opacity="0.3"><path opacity="0.3" d="M202.176 343.819V370.357L201.881 370.652L179.176 383.626L178.881 383.331L156.176 370.357V343.819L156.471 343.524L179.176 330.549L179.471 330.844L202.176 343.819ZM200.996 369.767V344.408L179.176 331.729L157.355 344.408V369.767L179.176 382.447L200.996 369.767Z" fill="#006380"></path></g><g opacity="0.3"><path opacity="0.3" d="M204.222 92.2948V122.667L203.927 122.962L177.978 138L177.683 137.705L151.734 122.667V92.2948L152.029 91.9999L177.978 76.9614L178.273 77.2563L204.222 92.2948ZM203.042 122.077V93.1794L177.978 78.7307L153.209 93.1794V122.077L178.273 136.526L203.042 122.077Z" fill="#006380"></path></g><g opacity="0.3"><path opacity="0.3" d="M125.479 39.5111V69.883L125.185 70.1778L99.2358 84.9215H98.941L72.9922 69.883V39.5111L73.2871 39.2162L99.2358 24.1777L99.5307 24.4726L125.479 39.5111ZM124.3 68.9984V40.3957L99.2358 25.947L74.1717 40.3957V69.2932L99.2358 83.742L124.3 68.9984Z" fill="#006380"></path></g><g opacity="0.3"><path opacity="0.3" d="M17.8762 415.769V445.256H17.5813L-7.77768 460L-8.07256 459.705L-33.1367 445.256V415.769L-32.8419 415.474L-7.48281 401.025L-7.18794 401.32L17.8762 415.769ZM16.6967 444.667V416.654L-7.77768 402.5L-32.2521 416.654V444.667L-7.77768 458.82L16.6967 444.667Z" fill="#006380"></path></g><g opacity="0.3"><path opacity="0.3" d="M48.5114 165.718H46.7422V229.411H48.5114V165.718Z" fill="#006380"></path></g><g opacity="0.3"><path opacity="0.3" d="M157.621 343.821L157.031 345.296L100.121 322.001L101.006 320.526L157.621 343.821Z" fill="#006380"></path></g><g opacity="0.3"><path opacity="0.3" d="M180.324 276.294H178.555V331.73H180.324V276.294Z" fill="#006380"></path></g><g opacity="0.3"><path opacity="0.3" d="M262.619 264.795L262.029 266.27L224.875 250.346L225.76 248.872L262.619 264.795Z" fill="#006380"></path></g><g opacity="0.3"><path opacity="0.3" d="M5.5028 140.36L-35.1896 164.244L-36.0742 163.065L4.61819 138.885L5.5028 140.36Z" fill="#006380"></path></g></g></g><path d="M489.984 228.234L489.395 228.529L444.574 202.58L443.984 202.285V150.093L488.805 124.144L489.395 123.849L534.215 149.798L534.805 150.093V202.285L489.984 228.234ZM489.395 126.503L446.343 151.272V201.106L489.395 225.875L532.446 201.106V151.272L489.395 126.503Z" fill="#000066"></path><path d="M489.687 360.335L489.392 360.63L453.713 339.989L453.418 339.694V297.822L489.098 277.181H489.392L525.072 297.822L525.367 298.117V339.989L489.687 360.335ZM489.392 278.95L454.892 299.002V338.81L489.392 358.861L523.893 338.81V299.002L489.392 278.95Z" fill="#000066"></path><path d="M597.324 274.529L596.734 274.824L558.99 253.003L558.695 252.709V208.478L596.439 186.657L597.029 186.362L634.772 208.183L635.067 208.478V252.709L597.324 274.529ZM596.734 188.426L560.17 209.657V251.824L596.734 273.055L633.298 251.824V209.657L596.734 188.426Z" fill="#000066"></path><path d="M685.158 209.654L663.338 197.269L663.043 196.975V171.616L684.864 158.936H685.158L706.979 171.616L707.274 171.91V197.269L685.158 209.654ZM684.864 160.116L663.928 172.205V196.385L684.864 208.475L705.8 196.385V172.205L684.864 160.116Z" fill="#000066"></path><path d="M596.692 143.603L578.115 132.988H577.82V111.462L596.397 100.847H596.692L615.269 111.462H615.564V132.988L596.692 143.603ZM596.397 101.436L578.705 111.757V132.398L596.397 142.719L614.09 132.398V111.757L596.397 101.436Z" fill="#000066"></path><path d="M595.83 349.427L574.6 337.337H574.305V312.863L595.241 300.773H595.535L616.471 312.863H616.766V337.337L595.83 349.427ZM595.535 301.658L575.189 313.452V337.042L595.535 348.837L615.882 337.042V313.452L595.535 301.658Z" fill="#000066"></path><path d="M531.545 392.476L510.314 380.386H510.02V355.912L530.956 343.822H531.25L552.186 355.912H552.481V380.386L531.545 392.476ZM531.545 344.707L511.199 356.502V380.092L531.545 391.886L551.891 380.092V356.502L531.545 344.707Z" fill="#000066"></path><path d="M391.508 387.17L367.623 373.9L367.328 373.605V346.182L390.918 332.618L391.213 332.323L414.803 345.887L415.097 346.182V373.605L391.508 387.17ZM391.213 333.798L368.508 346.772V373.016L391.213 385.99L413.918 373.016V346.772L391.213 333.798Z" fill="#000066"></path><path d="M317.759 236.194L304.49 228.822H304.195V213.194L317.465 205.527H317.759L331.029 213.194H331.324V228.527L317.759 236.194ZM317.465 206.411L304.785 213.783V228.527L317.465 235.899L330.144 228.527V213.783L317.465 206.411Z" fill="#000066"></path><path d="M382.633 138.592L363.467 127.976H363.172V105.861L382.044 94.9507H382.339L401.21 105.861H401.505V127.682L382.633 138.592ZM382.339 95.8353L364.057 106.156V127.092L382.339 137.707L400.326 127.092V106.156L382.339 95.8353Z" fill="#000066"></path><path d="M444.577 86.1039L423.936 74.309H423.641V50.4243L444.282 38.6294H444.577L465.218 50.4243H465.513V74.309L444.577 86.1039ZM444.282 39.514L424.525 51.014V73.7192L444.282 85.2193L464.038 73.7192V51.014L444.282 39.514Z" fill="#000066"></path><path d="M391.786 297.822L391.491 298.117L360.529 280.425L360.234 280.13V243.861L391.196 226.168L391.491 225.874L422.452 243.566L422.747 243.861V279.835L391.786 297.822ZM391.196 227.643L361.414 244.745V279.245L391.196 296.348L420.978 279.245V244.745L391.196 227.643Z" fill="#000066"></path><path d="M446.629 150.682L400.629 126.797L400.039 127.681L445.744 151.861L446.629 150.682Z" fill="#000066"></path><path d="M361.092 244.157L330.131 227.939L329.836 228.824L360.798 245.042L361.092 244.157Z" fill="#000066"></path><path d="M489.963 225.874H488.488V277.476H489.963V225.874Z" fill="#000066"></path><path d="M579.025 132.99L578.436 131.811L532.141 150.682L532.73 151.862L579.025 132.99Z" fill="#000066"></path><path d="M597.326 142.72H595.852V187.835H597.326V142.72Z" fill="#000066"></path><path d="M664.221 196.975L663.632 195.796L633.555 208.77L634.144 209.95L664.221 196.975Z" fill="#000066"></path><path d="M455.192 298.411L421.871 278.95L421.281 280.129L454.602 299.591L455.192 298.411Z" fill="#000066"></path><path d="M391.759 296.642H390.285V333.206H391.759V296.642Z" fill="#000066"></path><path d="M148.797 208.179L148.207 208.474L103.387 182.82L102.797 182.525V130.038L147.617 104.089L148.207 103.794L193.028 129.743L193.618 130.038V182.231L148.797 208.179ZM148.207 106.448L104.861 131.512V181.346L147.912 206.115L190.964 181.346V131.512L148.207 106.448Z" fill="#000066"></path><path d="M148.525 340.576L148.23 340.871L112.551 320.23L111.961 319.935V278.063L147.641 257.422L147.935 257.127L183.615 277.768L183.91 278.063V319.935L148.525 340.576ZM148.23 259.191L113.73 278.948V318.755L148.23 338.807L182.73 318.755V278.948L148.23 259.191Z" fill="#000066"></path><path d="M256.161 254.767L255.572 255.062L217.828 233.242L217.238 232.947V188.716L254.982 166.895L255.572 166.601L293.315 188.421L293.61 188.716V232.947L256.161 254.767ZM255.572 168.665L219.008 189.896V232.062L255.572 253.293L292.136 232.062V189.601L255.572 168.665Z" fill="#000066"></path><path d="M343.996 189.599L321.881 177.215L321.586 176.92V151.561L343.406 138.881H343.701L365.522 151.561L365.817 151.856V177.215L343.996 189.599ZM343.701 140.061L322.765 152.151V176.33L343.701 188.42L364.637 176.33V152.151L343.701 140.061Z" fill="#000066"></path><path d="M255.52 123.549L236.943 112.933H236.648V91.4074L255.225 80.792H255.52L274.097 91.4074H274.392V112.933L255.52 123.549ZM255.225 81.6766L237.533 91.9971V112.638L255.225 122.959L272.918 112.638V91.9971L255.225 81.6766Z" fill="#000066"></path><path d="M254.662 329.668L233.432 317.578H233.137V292.809L254.073 280.719H254.368L275.303 292.809H275.598V317.283L254.662 329.668ZM254.368 281.603L234.021 293.398V316.988L254.368 328.783L274.714 316.988V293.398L254.368 281.603Z" fill="#000066"></path><path d="M190.377 372.422L169.146 360.332H168.852V335.857L189.788 323.768H190.082L211.018 335.857H211.313V360.332L190.377 372.422ZM190.082 324.652L169.736 336.447V360.037L190.082 371.832L210.429 360.037V336.447L190.082 324.652Z" fill="#000066"></path><path d="M50.3183 367.408L26.7285 353.844H26.4336V326.421L50.0234 312.856V312.562L73.6132 326.126L73.9081 326.421V353.844L50.3183 367.408ZM50.0234 313.741L27.3182 326.715V352.959L50.0234 365.933L72.7286 352.959V326.715L50.0234 313.741Z" fill="#000066"></path><path d="M41.1706 118.537L22.2988 107.922H22.0039V85.8063L40.8757 74.896H41.1706L60.0425 85.8063H60.3373V107.627L41.1706 118.537ZM41.1706 75.7806L22.8885 86.396V107.332L41.1706 117.653L59.1578 107.332V86.396L41.1706 75.7806Z" fill="#000066"></path><path d="M103.409 66.3445L82.7675 54.5496H82.4727V30.3701L103.114 18.5752H103.409L124.05 30.3701H124.345V54.2548L103.409 66.3445ZM103.114 19.4598L83.3573 30.9598V53.9599L103.114 65.1651L122.87 53.665V30.9598L103.114 19.4598Z" fill="#000066"></path><path d="M50.3326 277.768L50.0377 278.063L19.0761 260.371L18.7812 260.076V223.807L49.7429 206.114L50.0377 205.819L80.9994 223.512L81.2942 223.807V259.781L50.3326 277.768ZM50.0377 207.589L20.2556 224.691V259.191L50.0377 276.294L79.8199 259.191V224.691L50.0377 207.589Z" fill="#000066"></path><path d="M105.15 130.922L59.4452 106.743L58.8555 107.922L104.561 131.807L105.15 130.922Z" fill="#000066"></path><path d="M19.9107 224.398L-11.0509 207.885L-11.6406 208.77L19.6159 225.283L19.9107 224.398Z" fill="#000066"></path><path d="M148.779 206.112H147.305V257.715H148.779V206.112Z" fill="#000066"></path><path d="M237.846 112.935L237.256 111.756L190.961 130.628L191.551 132.102L237.846 112.935Z" fill="#000066"></path><path d="M256.142 122.666H254.668V167.781H256.142V122.666Z" fill="#000066"></path><path d="M323.053 177.214L322.464 176.034L292.387 189.009L292.976 190.188L323.053 177.214Z" fill="#000066"></path><path d="M114.024 278.357L80.703 258.896L80.1133 260.075L113.139 279.537L114.024 278.357Z" fill="#000066"></path><path d="M50.5916 276.885H49.1172V313.449H50.5916V276.885Z" fill="#000066"></path></g></svg>