<svg xmlns="http://www.w3.org/2000/svg" width="915" height="460" viewBox="0 0 915 460" fill="none"><g opacity="0.05"><g opacity="0.3"><g opacity="0.3"><g opacity="0.3"><path opacity="0.3" d="M702.7 233.833V298.115L702.11 298.41L647.264 330.256L646.674 329.961L591.828 298.115V233.833L592.418 233.538L647.559 201.691L648.149 201.986L702.7 233.833ZM700.046 296.64V235.307L646.969 204.64L593.892 235.307V296.64L646.969 327.307L700.046 296.64Z" fill="#006380"></path></g><g opacity="0.3"><path opacity="0.3" d="M691.536 64.8727V116.18L690.946 116.475L647.01 141.834L646.42 141.54L602.484 116.18V64.8727L603.074 64.5778L647.01 39.2188L647.6 39.5136L691.536 64.8727ZM689.472 115.296V66.0521L647.01 41.5777L604.548 66.0521V115.001L647.01 139.475L689.472 115.296Z" fill="#006380"></path></g><g opacity="0.3"><path opacity="0.3" d="M826.25 171.913V226.17L825.66 226.76L779.07 253.593L778.48 253.298L731.891 226.465V171.913L732.48 171.619L779.07 144.785L779.66 145.08L826.25 171.913ZM823.891 224.99V173.093L779.07 147.144L734.25 173.093V224.99L779.07 250.939L823.891 224.99Z" fill="#006380"></path></g><g opacity="0.3"><path opacity="0.3" d="M914.757 240.322V271.579L914.462 271.873L887.628 287.502L887.333 287.207L860.5 271.873V240.322L860.795 240.027L887.628 224.694L887.923 224.989L914.757 240.322ZM913.577 270.989V241.207L887.628 226.168L861.679 241.207V270.989L887.628 286.027L913.577 270.989Z" fill="#006380"></path></g><g opacity="0.3"><path opacity="0.3" d="M801.797 319.348V345.887L801.502 346.182L778.797 359.156L778.502 358.861L755.797 345.887V319.348L756.092 319.053L778.797 306.079L779.092 306.374L801.797 319.348ZM800.618 345.297V319.938L778.797 307.259L756.976 319.938V345.297L778.797 357.977L800.618 345.297Z" fill="#006380"></path></g><g opacity="0.3"><path opacity="0.3" d="M803.839 67.8202V98.1921L803.544 98.4869L777.595 113.525L777.3 113.231L751.352 98.1921V67.8202L751.646 67.5253L777.595 52.4868L777.89 52.7817L803.839 67.8202ZM802.659 97.3074V68.7048L777.595 54.2561L752.531 68.7048V97.3074L777.595 111.756L802.659 97.3074Z" fill="#006380"></path></g><g opacity="0.3"><path opacity="0.3" d="M724.802 15.0385V45.4104L724.507 45.7052L698.853 60.4489L698.558 60.154L672.609 45.1155V15.0385L672.904 14.7436L698.853 0L699.148 0.294873L724.802 15.0385ZM723.622 44.5257V15.9231L698.853 1.47436L673.789 15.9231V44.8206L698.853 58.9745L723.622 44.5257Z" fill="#006380"></path></g><g opacity="0.3"><path opacity="0.3" d="M555.883 23.2931V56.9085L555.588 57.2034L526.69 74.0112L526.101 73.7163L497.203 56.9085V23.2931L497.498 22.9982L526.395 6.48535L526.69 6.78022L555.883 23.2931ZM554.408 56.3188V24.1777L526.69 7.95971L498.972 24.1777V56.3188L526.69 72.5368L554.408 56.3188Z" fill="#006380"></path></g><g opacity="0.3"><path opacity="0.3" d="M452.063 201.694V220.566H451.768L435.845 230.002H435.55L419.332 220.566V201.694H419.627L435.845 192.258H436.14L452.063 201.694ZM451.473 219.976V201.989L435.845 192.848L420.217 201.989V219.976L435.845 229.117L451.473 219.976Z" fill="#006380"></path></g><g opacity="0.3"><path opacity="0.3" d="M538.777 325.539V352.668L538.482 352.962L515.482 366.232L515.188 365.937L492.188 352.668V325.539L492.482 325.244L515.482 311.975L515.777 312.27L538.777 325.539ZM537.598 352.078V326.424L515.188 313.449L492.777 326.424V352.078L515.188 365.052L537.598 352.078Z" fill="#006380"></path></g><g opacity="0.3"><path opacity="0.3" d="M617.214 391.298V420.785L616.919 421.08L591.56 435.529L591.265 435.234L565.906 420.785V391.298L566.201 391.003L591.56 376.554L591.855 376.849L617.214 391.298ZM616.035 419.9V391.888L591.56 377.734L567.086 391.888V419.9L591.56 434.054L616.035 419.9Z" fill="#006380"></path></g><g opacity="0.3"><path opacity="0.3" d="M565.009 138.588V182.818L564.714 183.113L526.675 204.934L526.085 204.639L488.047 182.818V138.588L488.342 138.293L526.38 116.472L526.97 116.767L565.009 138.588ZM562.945 181.934V139.472L526.38 118.241L489.816 139.472V181.639L526.38 202.87L562.945 181.934Z" fill="#006380"></path></g><g opacity="0.3"><path opacity="0.3" d="M594.487 297.527L538.166 327.014L537.281 325.539L593.602 296.052L594.487 297.527Z" fill="#006380"></path></g><g opacity="0.3"><path opacity="0.3" d="M489.519 182.528L451.48 202.579L450.891 201.399L488.929 181.348L489.519 182.528Z" fill="#006380"></path></g><g opacity="0.3"><path opacity="0.3" d="M647.847 141.244H646.078V204.936H647.847V141.244Z" fill="#006380"></path></g><g opacity="0.3"><path opacity="0.3" d="M757.258 319.052L756.668 320.822L699.758 297.527L700.348 296.052L757.258 319.052Z" fill="#006380"></path></g><g opacity="0.3"><path opacity="0.3" d="M779.66 251.824H777.891V307.26H779.66V251.824Z" fill="#006380"></path></g><g opacity="0.3"><path opacity="0.3" d="M861.945 240.321L861.355 241.795L824.496 225.872L825.086 224.397L861.945 240.321Z" fill="#006380"></path></g><g opacity="0.3"><path opacity="0.3" d="M604.835 115.885L564.142 139.77L563.258 138.59L604.245 114.411L604.835 115.885Z" fill="#006380"></path></g><g opacity="0.3"><path opacity="0.3" d="M526.957 72.8335H525.188V117.949H526.957V72.8335Z" fill="#006380"></path></g></g><g opacity="0.3"><g opacity="0.3"><path opacity="0.3" d="M283.083 258.308V322.59L282.493 322.885L227.647 354.731L227.057 354.436L172.211 322.59V258.308L172.801 258.013L227.942 226.167L228.532 226.461L283.083 258.308ZM280.724 321.115V260.077L227.647 229.41L174.57 260.077V321.41L227.647 352.077L280.724 321.115Z" fill="#006380"></path></g><g opacity="0.3"><path opacity="0.3" d="M272.204 89.3429V140.651L271.614 141.24L227.678 166.599L227.088 166.305L183.152 140.946V89.3429L183.742 89.048L227.678 63.689L228.268 63.9838L272.204 89.3429ZM270.14 139.766V90.8172L227.678 66.0479L185.216 90.8172V139.766L227.678 164.24L270.14 139.766Z" fill="#006380"></path></g><g opacity="0.3"><path opacity="0.3" d="M406.611 196.384V250.64L406.021 250.935L359.432 277.768L358.842 277.474L312.547 250.935V196.384L313.137 196.089L359.726 169.255L360.316 169.55L406.611 196.384ZM404.547 249.461V197.563L359.726 171.614L314.611 197.563V249.461L359.432 275.409L404.547 249.461Z" fill="#006380"></path></g><g opacity="0.3"><path opacity="0.3" d="M495.069 264.793V296.05L494.774 296.345L467.941 311.678L467.646 311.383L440.812 296.05V264.793L441.107 264.498L467.941 249.165L468.236 249.46L495.069 264.793ZM493.89 295.46V265.678L467.941 250.639L442.287 265.678V295.46L468.236 310.499L493.89 295.46Z" fill="#006380"></path></g><g opacity="0.3"><path opacity="0.3" d="M382.176 343.819V370.357L381.881 370.652L359.176 383.626L358.881 383.331L336.176 370.357V343.819L336.471 343.524L359.176 330.549L359.471 330.844L382.176 343.819ZM380.996 369.767V344.408L359.176 331.729L337.355 344.408V369.767L359.176 382.447L380.996 369.767Z" fill="#006380"></path></g><g opacity="0.3"><path opacity="0.3" d="M384.222 92.2948V122.667L383.927 122.962L357.978 138L357.683 137.705L331.734 122.667V92.2948L332.029 91.9999L357.978 76.9614L358.273 77.2563L384.222 92.2948ZM383.042 122.077V93.1794L357.978 78.7307L333.209 93.1794V122.077L358.273 136.526L383.042 122.077Z" fill="#006380"></path></g><g opacity="0.3"><path opacity="0.3" d="M305.479 39.5111V69.883L305.185 70.1778L279.236 84.9215H278.941L252.992 69.883V39.5111L253.287 39.2162L279.236 24.1777L279.531 24.4726L305.479 39.5111ZM304.3 68.9984V40.3957L279.236 25.947L254.172 40.3957V69.2932L279.236 83.742L304.3 68.9984Z" fill="#006380"></path></g><g opacity="0.3"><path opacity="0.3" d="M136.26 47.7682V81.3837L135.965 81.6785L107.067 98.4863L106.772 98.1914L77.875 81.3837V47.7682L78.1699 47.4733L107.067 30.9604L107.362 31.2553L136.26 47.7682ZM135.08 80.7939V48.6528L107.067 32.4348L79.3494 48.6528V80.7939L107.067 97.0119L135.08 80.7939Z" fill="#006380"></path></g><g opacity="0.3"><path opacity="0.3" d="M32.7308 226.169V245.041H32.436L16.218 254.477H15.9231L0 245.041V226.169H0.294873L16.5129 216.733H16.8077L32.7308 226.169ZM31.8462 244.451V226.464L16.218 217.618L0.884618 226.464V244.451L16.218 253.592L31.8462 244.451Z" fill="#006380"></path></g><g opacity="0.3"><path opacity="0.3" d="M119.441 350.01V377.138L119.147 377.433L96.1465 390.702L95.8516 390.407L72.8516 377.138V350.01L73.1464 349.715L96.1465 336.446L96.4414 336.741L119.441 350.01ZM118.262 376.548V350.895L95.8516 337.92L73.7362 350.895V376.548L96.1465 389.523L118.262 376.548Z" fill="#006380"></path></g><g opacity="0.3"><path opacity="0.3" d="M197.876 415.769V445.256H197.581L172.222 460L171.927 459.705L146.863 445.256V415.769L147.158 415.474L172.517 401.025L172.812 401.32L197.876 415.769ZM196.697 444.667V416.654L172.222 402.5L147.748 416.654V444.667L172.222 458.82L196.697 444.667Z" fill="#006380"></path></g><g opacity="0.3"><path opacity="0.3" d="M145.362 163.062V207.293L145.067 207.588L107.029 229.409H106.439L68.6953 207.293V163.062L68.9902 162.767L107.029 140.947L107.618 141.242L145.362 163.062ZM143.593 206.408V163.947L107.029 143.011L70.4646 163.947V206.408L107.029 227.639L143.593 206.408Z" fill="#006380"></path></g><g opacity="0.3"><path opacity="0.3" d="M174.864 322.001L118.543 351.488L117.953 350.014L174.274 320.526L174.864 322.001Z" fill="#006380"></path></g><g opacity="0.3"><path opacity="0.3" d="M70.1888 206.999L31.8554 227.05L31.2656 225.871L69.5991 205.819L70.1888 206.999Z" fill="#006380"></path></g><g opacity="0.3"><path opacity="0.3" d="M228.511 165.718H226.742V229.411H228.511V165.718Z" fill="#006380"></path></g><g opacity="0.3"><path opacity="0.3" d="M337.621 343.821L337.031 345.296L280.121 322.001L281.006 320.526L337.621 343.821Z" fill="#006380"></path></g><g opacity="0.3"><path opacity="0.3" d="M360.324 276.294H358.555V331.73H360.324V276.294Z" fill="#006380"></path></g><g opacity="0.3"><path opacity="0.3" d="M442.619 264.795L442.029 266.27L404.875 250.346L405.76 248.872L442.619 264.795Z" fill="#006380"></path></g><g opacity="0.3"><path opacity="0.3" d="M185.503 140.36L144.81 164.244L143.926 163.065L184.618 138.885L185.503 140.36Z" fill="#006380"></path></g><g opacity="0.3"><path opacity="0.3" d="M107.625 97.3042H105.855V142.42H107.625V97.3042Z" fill="#006380"></path></g></g></g><path d="M669.984 228.234L669.395 228.529L624.574 202.58L623.984 202.285V150.093L668.805 124.144L669.395 123.849L714.215 149.798L714.805 150.093V202.285L669.984 228.234ZM669.395 126.503L626.343 151.272V201.106L669.395 225.875L712.446 201.106V151.272L669.395 126.503Z" fill="#000066"></path><path d="M669.687 360.335L669.392 360.63L633.713 339.989L633.418 339.694V297.822L669.098 277.181H669.392L705.072 297.822L705.367 298.117V339.989L669.687 360.335ZM669.392 278.95L634.892 299.002V338.81L669.392 358.861L703.893 338.81V299.002L669.392 278.95Z" fill="#000066"></path><path d="M777.324 274.529L776.734 274.824L738.99 253.003L738.695 252.709V208.478L776.439 186.657L777.029 186.362L814.772 208.183L815.067 208.478V252.709L777.324 274.529ZM776.734 188.426L740.17 209.657V251.824L776.734 273.055L813.298 251.824V209.657L776.734 188.426Z" fill="#000066"></path><path d="M865.158 209.654L843.338 197.269L843.043 196.975V171.616L864.864 158.936H865.158L886.979 171.616L887.274 171.91V197.269L865.158 209.654ZM864.864 160.116L843.928 172.205V196.385L864.864 208.475L885.8 196.385V172.205L864.864 160.116Z" fill="#000066"></path><path d="M776.692 143.603L758.115 132.988H757.82V111.462L776.397 100.847H776.692L795.269 111.462H795.564V132.988L776.692 143.603ZM776.397 101.436L758.705 111.757V132.398L776.397 142.719L794.09 132.398V111.757L776.397 101.436Z" fill="#000066"></path><path d="M775.83 349.427L754.6 337.337H754.305V312.863L775.241 300.773H775.535L796.471 312.863H796.766V337.337L775.83 349.427ZM775.535 301.658L755.189 313.452V337.042L775.535 348.837L795.882 337.042V313.452L775.535 301.658Z" fill="#000066"></path><path d="M711.545 392.476L690.314 380.386H690.02V355.912L710.956 343.822H711.25L732.186 355.912H732.481V380.386L711.545 392.476ZM711.545 344.707L691.199 356.502V380.092L711.545 391.886L731.891 380.092V356.502L711.545 344.707Z" fill="#000066"></path><path d="M571.508 387.17L547.623 373.9L547.328 373.605V346.182L570.918 332.618L571.213 332.323L594.803 345.887L595.097 346.182V373.605L571.508 387.17ZM571.213 333.798L548.508 346.772V373.016L571.213 385.99L593.918 373.016V346.772L571.213 333.798Z" fill="#000066"></path><path d="M497.759 236.194L484.49 228.822H484.195V213.194L497.465 205.527H497.759L511.029 213.194H511.324V228.527L497.759 236.194ZM497.465 206.411L484.785 213.783V228.527L497.465 235.899L510.144 228.527V213.783L497.465 206.411Z" fill="#000066"></path><path d="M562.633 138.592L543.467 127.976H543.172V105.861L562.044 94.9507H562.339L581.21 105.861H581.505V127.682L562.633 138.592ZM562.339 95.8353L544.057 106.156V127.092L562.339 137.707L580.326 127.092V106.156L562.339 95.8353Z" fill="#000066"></path><path d="M624.577 86.1039L603.936 74.309H603.641V50.4243L624.282 38.6294H624.577L645.218 50.4243H645.513V74.309L624.577 86.1039ZM624.282 39.514L604.525 51.014V73.7192L624.282 85.2193L644.038 73.7192V51.014L624.282 39.514Z" fill="#000066"></path><path d="M571.786 297.822L571.491 298.117L540.529 280.425L540.234 280.13V243.861L571.196 226.168L571.491 225.874L602.452 243.566L602.747 243.861V279.835L571.786 297.822ZM571.196 227.643L541.414 244.745V279.245L571.196 296.348L600.978 279.245V244.745L571.196 227.643Z" fill="#000066"></path><path d="M626.629 150.682L580.629 126.797L580.039 127.681L625.744 151.861L626.629 150.682Z" fill="#000066"></path><path d="M541.092 244.157L510.131 227.939L509.836 228.824L540.798 245.042L541.092 244.157Z" fill="#000066"></path><path d="M669.963 225.874H668.488V277.476H669.963V225.874Z" fill="#000066"></path><path d="M759.025 132.99L758.436 131.811L712.141 150.682L712.73 151.862L759.025 132.99Z" fill="#000066"></path><path d="M777.326 142.72H775.852V187.835H777.326V142.72Z" fill="#000066"></path><path d="M844.221 196.975L843.632 195.796L813.555 208.77L814.144 209.95L844.221 196.975Z" fill="#000066"></path><path d="M635.192 298.411L601.871 278.95L601.281 280.129L634.602 299.591L635.192 298.411Z" fill="#000066"></path><path d="M571.759 296.642H570.285V333.206H571.759V296.642Z" fill="#000066"></path><path d="M328.797 208.179L328.207 208.474L283.387 182.82L282.797 182.525V130.038L327.617 104.089L328.207 103.794L373.028 129.743L373.618 130.038V182.231L328.797 208.179ZM328.207 106.448L284.861 131.512V181.346L327.912 206.115L370.964 181.346V131.512L328.207 106.448Z" fill="#000066"></path><path d="M328.525 340.576L328.23 340.871L292.551 320.23L291.961 319.935V278.063L327.641 257.422L327.935 257.127L363.615 277.768L363.91 278.063V319.935L328.525 340.576ZM328.23 259.191L293.73 278.948V318.755L328.23 338.807L362.73 318.755V278.948L328.23 259.191Z" fill="#000066"></path><path d="M436.161 254.767L435.572 255.062L397.828 233.242L397.238 232.947V188.716L434.982 166.895L435.572 166.601L473.315 188.421L473.61 188.716V232.947L436.161 254.767ZM435.572 168.665L399.008 189.896V232.062L435.572 253.293L472.136 232.062V189.601L435.572 168.665Z" fill="#000066"></path><path d="M523.996 189.599L501.881 177.215L501.586 176.92V151.561L523.406 138.881H523.701L545.522 151.561L545.817 151.856V177.215L523.996 189.599ZM523.701 140.061L502.765 152.151V176.33L523.701 188.42L544.637 176.33V152.151L523.701 140.061Z" fill="#000066"></path><path d="M435.52 123.549L416.943 112.933H416.648V91.4074L435.225 80.792H435.52L454.097 91.4074H454.392V112.933L435.52 123.549ZM435.225 81.6766L417.533 91.9971V112.638L435.225 122.959L452.918 112.638V91.9971L435.225 81.6766Z" fill="#000066"></path><path d="M434.662 329.668L413.432 317.578H413.137V292.809L434.073 280.719H434.368L455.303 292.809H455.598V317.283L434.662 329.668ZM434.368 281.603L414.021 293.398V316.988L434.368 328.783L454.714 316.988V293.398L434.368 281.603Z" fill="#000066"></path><path d="M370.377 372.422L349.146 360.332H348.852V335.857L369.788 323.768H370.082L391.018 335.857H391.313V360.332L370.377 372.422ZM370.082 324.652L349.736 336.447V360.037L370.082 371.832L390.429 360.037V336.447L370.082 324.652Z" fill="#000066"></path><path d="M230.318 367.408L206.728 353.844H206.434V326.421L230.023 312.856V312.562L253.613 326.126L253.908 326.421V353.844L230.318 367.408ZM230.023 313.741L207.318 326.715V352.959L230.023 365.933L252.729 352.959V326.715L230.023 313.741Z" fill="#000066"></path><path d="M156.597 216.141L143.033 208.769H142.738V193.436L156.302 185.769H156.597L169.867 193.436H170.161V208.769L156.597 216.141ZM156.302 186.359L143.623 193.731V208.474L156.302 215.551L168.982 208.179V193.436L156.302 186.359Z" fill="#000066"></path><path d="M221.171 118.537L202.299 107.922H202.004V85.8063L220.876 74.896H221.171L240.042 85.8063H240.337V107.627L221.171 118.537ZM221.171 75.7806L202.889 86.396V107.332L221.171 117.653L239.158 107.332V86.396L221.171 75.7806Z" fill="#000066"></path><path d="M283.409 66.3445L262.768 54.5496H262.473V30.3701L283.114 18.5752H283.409L304.05 30.3701H304.345V54.2548L283.409 66.3445ZM283.114 19.4598L263.357 30.9598V53.9599L283.114 65.1651L302.87 53.665V30.9598L283.114 19.4598Z" fill="#000066"></path><path d="M230.333 277.768L230.038 278.063L199.076 260.371L198.781 260.076V223.807L229.743 206.114L230.038 205.819L260.999 223.512L261.294 223.807V259.781L230.333 277.768ZM230.038 207.589L200.256 224.691V259.191L230.038 276.294L259.82 259.191V224.691L230.038 207.589Z" fill="#000066"></path><path d="M285.15 130.922L239.445 106.743L238.855 107.922L284.561 131.807L285.15 130.922Z" fill="#000066"></path><path d="M199.911 224.398L168.949 207.885L168.359 208.77L199.616 225.283L199.911 224.398Z" fill="#000066"></path><path d="M328.779 206.112H327.305V257.715H328.779V206.112Z" fill="#000066"></path><path d="M417.846 112.935L417.256 111.756L370.961 130.628L371.551 132.102L417.846 112.935Z" fill="#000066"></path><path d="M436.142 122.666H434.668V167.781H436.142V122.666Z" fill="#000066"></path><path d="M503.053 177.214L502.464 176.034L472.387 189.009L472.976 190.188L503.053 177.214Z" fill="#000066"></path><path d="M294.024 278.357L260.703 258.896L260.113 260.075L293.139 279.537L294.024 278.357Z" fill="#000066"></path><path d="M230.592 276.885H229.117V313.449H230.592V276.885Z" fill="#000066"></path></g></svg>