<svg xmlns="http://www.w3.org/2000/svg" width="314" height="279" viewBox="0 0 314 279" fill="none"><mask id="mask0_8165_3879" style="mask-type:alpha" maskUnits="userSpaceOnUse" x="0" y="0" width="314" height="279"><rect width="314" height="279" transform="matrix(-1 0 0 1 314 0)" fill="#F9F9FF"></rect></mask><g mask="url(#mask0_8165_3879)"><path d="M216.976 173.929C231.093 181.143 252.564 179.501 252.265 160.219C252.01 143.817 228.687 128.937 213.061 132.415C207.716 133.604 203.542 136.654 201.096 140.738C200.933 141.01 200.779 141.286 200.629 141.57C183.605 138.783 159.448 153.096 154.861 169.961C151.591 181.983 157.811 193.638 170.157 196.997C176.588 198.747 183.43 197.925 189.682 195.845C200.58 192.22 211.922 184.23 216.978 173.931L216.976 173.929ZM286.575 239.389C287.29 238.777 286.359 237.691 285.645 238.301C282.812 240.723 279.363 242.671 275.811 243.801C274.916 244.085 275.347 245.448 276.242 245.163C279.98 243.974 283.596 241.935 286.575 239.388L286.575 239.389ZM249.322 46.4938C250.036 45.8817 249.105 44.795 248.391 45.4054C245.854 47.5687 239.503 51.1036 236.37 50.2218C235.463 49.9669 235.076 51.347 235.983 51.6002C239.687 52.6416 246.38 48.9976 249.32 46.4923L249.322 46.4938ZM260.636 41.4177C261.007 37.7619 259.206 34.6677 255.905 33.0883C247.421 29.0283 232.142 37.0711 227.789 44.9547C225.812 48.535 225.418 52.9707 228.446 56.1033C236.811 64.753 259.507 52.528 260.636 41.4181L260.636 41.4177ZM258.263 41.1846C257.326 50.4095 236.97 61.4843 230.167 54.4492C227.895 52.0998 228.43 48.7356 229.884 46.1044C233.615 39.348 247.567 31.7394 254.879 35.2378C257.274 36.3832 258.533 38.5314 258.265 41.1846H258.263ZM282.296 71.0046C275.225 68.4086 263.079 67.1207 256.512 70.208C250.614 72.98 250.193 78.3077 254.996 82.2736C260.822 87.0831 272.445 88.7686 279.805 88.1899C288.477 104.567 319.3 91.8692 319.771 74.9922C319.907 70.1526 317.569 65.7672 313.536 63.1073C304.054 56.8557 288.93 62.8775 282.296 71.0043L282.296 71.0046ZM278.838 85.8624C272.276 86.223 261.694 84.7053 256.519 80.4325C253.066 77.5817 253.242 74.3772 257.522 72.3663C263.341 69.6312 274.461 70.8386 280.845 73.0203C278.43 76.8589 277.478 81.4708 278.839 85.8626L278.838 85.8624ZM365.609 60.9811C366.55 61.0482 366.65 59.6177 365.71 59.5507C361.073 59.2069 353.528 56.0877 350.112 52.9518C349.419 52.3146 348.448 53.3677 349.143 54.0066C352.794 57.3572 360.653 60.6141 365.609 60.9811H365.609ZM375.325 66.3475C378.745 64.7325 379.977 61.5328 378.678 58.0078C375.232 48.6588 354.937 40.4148 345.391 42.1286C338.772 43.3176 336.599 48.5128 340.54 54.0504C346.232 62.0445 366.196 70.6594 375.325 66.3479L375.325 66.3475ZM374.308 64.1892C366.283 67.9792 347.501 59.715 342.484 52.6666C339.569 48.5748 340.927 45.35 345.812 44.4746C354.189 42.9704 373.4 50.5939 376.436 58.831C377.308 61.1956 376.61 63.1023 374.307 64.1888L374.308 64.1892ZM179.931 53.5188C180.845 53.2907 180.498 51.9005 179.584 52.1286C175.641 53.1281 165.279 47.0825 164.212 43.157C163.966 42.2464 162.581 42.622 162.827 43.5326C164.1 48.2129 175.23 54.7113 179.931 53.5191L179.931 53.5188ZM185.493 60.3877C189.003 58.7409 190.826 55.449 190.465 51.6037C189.523 41.5571 173.902 32.1862 164.374 32.5215C156.903 32.7847 152.442 38.3776 155.101 45.4393C158.658 54.8823 175.899 64.8873 185.492 60.3877H185.493ZM184.484 58.2295C176.191 62.1184 160.413 52.7657 157.335 44.599C155.247 39.0584 158.655 35.1092 164.457 34.9044C172.692 34.6143 187.284 43.2055 188.091 51.8182C188.356 54.6506 187.073 57.0137 184.482 58.2295H184.484ZM362.955 112.528C363.433 111.721 362.205 110.992 361.727 111.799C361.078 112.89 359.604 114.005 357.788 115.005C353.636 117.287 342.593 120.608 338.065 118.017C337.247 117.549 336.536 118.793 337.352 119.261C342.404 122.151 353.844 118.81 358.477 116.261C360.495 115.151 362.16 113.863 362.955 112.528H362.955ZM356.014 128.067C366.753 124.661 372.731 119.17 374.683 113.77C376.407 109.003 375.046 104.279 371.157 101.057C360.951 92.6005 337.108 98.4682 328.466 107.74C324.612 111.875 322.536 117.688 325.553 122.92C331.022 132.403 346.737 131.01 356.014 128.066V128.067ZM372.441 112.957C370.711 117.743 365.222 122.662 355.254 125.808C347.133 128.372 332.364 129.962 327.619 121.731C325.149 117.448 327.103 112.703 330.215 109.365C337.985 101.029 360.429 95.2703 369.636 102.897C372.745 105.473 373.823 109.141 372.443 112.958L372.441 112.957ZM310.115 80.5714C310.641 79.7949 309.459 78.9933 308.933 79.7698C306.144 83.8851 298.968 87.5157 294.001 87.2728C293.06 87.2292 292.993 88.658 293.934 88.7032C299.398 88.9715 307.05 85.0977 310.117 80.573L310.115 80.5714ZM317.383 74.9269C316.97 89.6774 288.784 101.266 281.732 86.7259C274.786 72.4077 300.305 57.2395 312.221 65.0979C315.557 67.2981 317.494 70.9219 317.383 74.9269ZM368.316 170.074C369.18 170.45 369.75 169.138 368.888 168.763C367.015 167.942 364.997 167.275 362.981 166.919C362.052 166.757 361.806 168.171 362.735 168.332C364.636 168.667 366.548 169.299 368.316 170.074H368.316ZM370.944 194.985C371.884 195 371.906 193.57 370.965 193.555C364.377 193.446 355.246 188.066 352.014 182.55C351.539 181.74 350.305 182.463 350.781 183.273C354.269 189.228 363.851 194.868 370.945 194.985L370.944 194.985ZM383.682 201.425C388.936 198.197 391.976 192.644 392 186.493C392.028 179.297 387.923 171.248 378.356 165.095C367.301 157.986 349.874 153.703 341.721 167.302C335.997 176.849 340.877 187.496 348.41 194.237C357.452 202.327 372.71 208.168 383.682 201.423V201.425ZM382.429 199.387C372.396 205.553 358.09 199.703 349.998 192.463C343.346 186.512 338.672 177.026 343.766 168.528C351.07 156.346 366.981 160.689 376.888 166.988C385.811 172.661 389.64 179.995 389.615 186.493C389.595 191.821 386.977 196.592 382.428 199.387L382.429 199.387ZM235.499 167.402C236.432 167.285 236.252 165.866 235.32 165.984C231.731 166.448 227.463 165.325 224.223 163.812C223.371 163.414 222.766 164.709 223.618 165.107C227.121 166.742 231.621 167.904 235.499 167.402H235.499ZM217.931 171.74C220.474 165.242 220.37 158.086 216.726 152.009C213.684 146.935 208.73 143.564 203.063 142.083C203.087 142.041 203.112 142.001 203.137 141.959C205.254 138.426 208.892 135.779 213.57 134.738C227.681 131.597 249.646 145.437 249.876 160.243C250.146 177.714 230.279 178.095 217.931 171.739L217.931 171.74ZM201.898 84.952C202.428 84.1755 201.245 83.3672 200.715 84.1454C197.432 88.9716 189.324 95.2 183.769 96.9473C182.871 97.2273 183.296 98.5957 184.195 98.3157C190.055 96.4743 198.435 90.0429 201.897 84.9535L201.898 84.952ZM213.608 77.877C213.983 73.329 211.396 70.1409 206.93 69.3729C194.785 67.2834 173.442 83.9006 169.359 95.23C166.511 103.13 170.923 108.267 178.902 107.506C190.861 106.364 212.574 90.3801 213.607 77.8766L213.608 77.877ZM211.225 77.6808C210.292 88.9703 189.488 104.102 178.678 105.133C172.433 105.728 169.359 102.253 171.602 96.0354C175.252 85.9063 195.591 69.846 206.53 71.7276C209.781 72.2877 211.5 74.3605 211.227 77.6808H211.225ZM261.93 216.037C262.249 215.804 262.318 215.355 262.084 215.036C261.851 214.718 261.402 214.649 261.083 214.882C258.273 216.951 255.563 219.366 253.317 222.043C253.064 222.346 253.104 222.798 253.406 223.052C253.71 223.306 254.161 223.265 254.416 222.964C256.587 220.378 259.214 218.038 261.93 216.039L261.93 216.037ZM298.267 237.877C298.889 237.174 297.819 236.227 297.195 236.929C290.831 244.129 280.759 249.911 271.304 251.666C270.379 251.836 270.637 253.243 271.563 253.073C281.336 251.257 291.688 245.318 298.267 237.875L298.267 237.877ZM317.421 206.341C298.272 174.413 242.151 199.139 233.479 229.837C231.242 237.759 231.863 246.171 235.889 253.419C245.059 269.924 264.859 271.552 280.923 266.278C303.795 258.768 332.908 232.163 317.421 206.342L317.421 206.341ZM280.186 264.006C265.232 268.916 246.558 267.708 237.973 252.258C234.254 245.564 233.712 237.791 235.778 230.48C243.827 201.983 297.431 177.641 315.376 207.564C330.024 231.989 301.532 256.994 280.186 264.005L280.186 264.006ZM294.784 140.391C295.683 140.111 295.257 138.743 294.358 139.023C288.532 140.841 272.792 132.764 270.874 126.969C270.579 126.073 269.217 126.521 269.512 127.417C271.679 133.962 288.204 142.444 294.786 140.39L294.784 140.391ZM303.261 149.784C308.024 147.227 310.315 142.491 309.523 137.165C308.646 131.262 303.955 124.51 294.633 118.984C287.647 114.842 278.863 111.18 270.634 111.918C264.61 112.458 258.803 115.588 257.466 121.912C255.734 130.108 262.487 137.706 268.536 142.193C277.548 148.878 293.169 155.198 303.259 149.782L303.261 149.784ZM302.131 147.681C292.961 152.603 278.202 146.393 269.958 140.279C264.751 136.417 258.297 129.535 259.804 122.399C260.911 117.162 265.913 114.734 270.84 114.293C278.395 113.615 286.651 117.076 293.213 120.917C301.984 126.05 306.369 132.201 307.158 137.512C307.804 141.85 306.015 145.597 302.131 147.683V147.681ZM173.811 190.29C172.901 190.043 172.525 191.427 173.436 191.675C175.069 192.119 176.775 192.23 178.458 192.092C179.399 192.019 179.287 190.59 178.346 190.662C176.826 190.788 175.285 190.691 173.811 190.29L173.811 190.29ZM174.311 160.299C175.106 159.802 174.35 158.59 173.555 159.088C171.066 160.646 168.926 163.13 167.484 165.668C167.019 166.487 168.264 167.193 168.728 166.374C170.045 164.057 172.039 161.722 174.313 160.299L174.311 160.299ZM205.957 162.91C205.994 161.969 204.564 161.914 204.527 162.855C204.421 165.551 203.021 168.412 200.97 171.038C196.222 177.12 188.636 181.499 180.996 182.57C177.694 183.033 174.518 182.817 172.13 181.559C171.779 181.375 171.347 181.509 171.162 181.859C170.978 182.21 171.112 182.642 171.462 182.827C174.139 184.236 177.617 184.491 181.192 183.989C189.196 182.867 197.123 178.291 202.097 171.918C204.319 169.072 205.838 165.932 205.958 162.911L205.957 162.91ZM188.929 193.58C183.145 195.503 176.736 196.307 170.778 194.685C159.703 191.672 154.236 181.348 157.164 170.583C162.641 150.451 201.743 131.661 214.683 153.233C225.186 170.749 203.972 188.576 188.929 193.578V193.58Z" fill="black" fill-opacity="0.08"></path></g></svg>