<svg xmlns="http://www.w3.org/2000/svg" width="22" height="23" viewBox="0 0 22 23" fill="none"><path d="M19.7807 13.9781C18.9376 13.2836 18.1859 12.9598 17.4159 12.9598C16.7083 12.9598 15.9754 13.2467 15.1742 13.8364L15.1279 13.8705L15.1273 13.8725C14.8179 14.1131 14.1454 14.7332 14.1398 14.7385C14.0654 14.8065 13.8643 14.8831 13.6933 14.8831C13.6578 14.8831 13.6353 14.8792 13.6327 14.8786C13.6203 14.8748 12.3889 14.4866 9.92874 12.0615C7.51885 9.61319 7.12668 8.38567 7.12607 8.38511C7.09315 8.24866 7.16716 7.96478 7.2713 7.85169C7.53363 7.56481 7.99823 7.05035 8.16983 6.81813L8.17102 6.81633C9.37255 5.17908 9.32807 3.80402 8.0238 2.22024C7.15321 1.16314 6.06899 0.0733068 4.63045 0.00405584C3.53143 -0.0528004 2.43822 0.487627 1.27 1.65627C0.164433 2.76327 -0.267313 4.5188 0.165812 6.10896C0.252988 6.60889 1.15831 11.135 6.01333 15.9895C10.8672 20.8439 15.3928 21.7497 15.8714 21.8319C16.2843 21.9446 16.7129 22.0013 17.1445 22.0013H17.1457C18.372 22.0013 19.5381 21.539 20.3448 20.7321C21.5091 19.5674 22.0497 18.4682 21.9964 17.3728C21.9272 15.9329 20.8376 14.8486 19.7804 13.9783L19.7807 13.9781ZM19.3657 19.7526C18.8163 20.3018 18.0092 20.6168 17.1524 20.6168C16.8364 20.6168 16.5218 20.5741 16.2203 20.4907C16.1952 20.4835 16.1697 20.4777 16.1443 20.4733C16.1 20.4662 11.6603 19.6765 6.99259 15.0094C2.34323 10.3614 1.53525 5.90153 1.5281 5.85864C1.52371 5.8327 1.51892 5.80717 1.51214 5.78403C1.19435 4.63853 1.48361 3.40309 2.24908 2.63704C3.09133 1.795 3.82265 1.38562 4.48498 1.38562C4.51131 1.38562 4.53724 1.38642 4.56298 1.38762C5.46268 1.43131 6.27699 2.27874 6.95407 3.10183C7.85219 4.19126 7.88013 4.86773 7.06698 5.98208L7.03666 6.02278C6.90799 6.19155 6.48705 6.66013 6.2439 6.92447C5.83354 7.37034 5.63847 8.12145 5.78008 8.70993C5.8146 8.85376 6.18964 10.1925 8.73954 12.8264C8.7547 12.8464 8.77046 12.8667 8.78961 12.8847L9.11758 13.2126C9.13673 13.232 9.15828 13.2495 9.16646 13.2537C11.8105 15.8116 13.1483 16.1871 13.2914 16.2214C13.4163 16.2511 13.5517 16.2668 13.6944 16.2668C14.2068 16.2668 14.7371 16.0711 15.0782 15.7577C15.3512 15.5066 15.8413 15.0663 15.9959 14.9532C16.5613 14.5358 16.9986 14.3509 17.4141 14.3509C17.8572 14.3509 18.3151 14.5658 18.9002 15.0481C19.7233 15.7248 20.5707 16.5383 20.6142 17.4387C20.6467 18.1221 20.2391 18.8788 19.3658 19.7522L19.3657 19.7526Z" fill="#008E48"></path></svg>