<svg xmlns="http://www.w3.org/2000/svg" width="40" height="40" viewBox="0 0 40 40" fill="none"><circle cx="20" cy="20" r="20" fill="#008E48"></circle><path d="M28.7807 22.9781C27.9376 22.2836 27.1859 21.9599 26.4159 21.9599C25.7083 21.9599 24.9754 22.2467 24.1742 22.8364L24.1279 22.8705L24.1273 22.8725C23.8179 23.1131 23.1454 23.7332 23.1398 23.7385C23.0654 23.8065 22.8643 23.8831 22.6933 23.8831C22.6578 23.8831 22.6353 23.8792 22.6327 23.8786C22.6203 23.8748 21.3889 23.4866 18.9287 21.0615C16.5188 18.6132 16.1267 17.3857 16.1261 17.3851C16.0932 17.2487 16.1672 16.9648 16.2713 16.8517C16.5336 16.5648 16.9982 16.0503 17.1698 15.8181L17.171 15.8163C18.3725 14.1791 18.3281 12.804 17.0238 11.2202C16.1532 10.1631 15.069 9.07331 13.6305 9.00406C12.5314 8.9472 11.4382 9.48763 10.27 10.6563C9.16443 11.7633 8.73269 13.5188 9.16581 15.109C9.25299 15.6089 10.1583 20.135 15.0133 24.9895C19.8672 29.8439 24.3928 30.7497 24.8714 30.8319C25.2843 30.9446 25.7129 31.0013 26.1445 31.0013H26.1457C27.372 31.0013 28.5381 30.539 29.3448 29.7321C30.5091 28.5674 31.0497 27.4682 30.9964 26.3728C30.9272 24.9329 29.8376 23.8486 28.7804 22.9783L28.7807 22.9781ZM28.3657 28.7526C27.8163 29.3018 27.0092 29.6168 26.1524 29.6168C25.8364 29.6168 25.5218 29.5741 25.2203 29.4907C25.1952 29.4835 25.1697 29.4777 25.1443 29.4733C25.1 29.4662 20.6603 28.6765 15.9926 24.0094C11.3432 19.3614 10.5353 14.9015 10.5281 14.8586C10.5237 14.8327 10.5189 14.8072 10.5121 14.784C10.1943 13.6385 10.4836 12.4031 11.2491 11.637C12.0913 10.795 12.8227 10.3856 13.485 10.3856C13.5113 10.3856 13.5372 10.3864 13.563 10.3876C14.4627 10.4313 15.277 11.2787 15.9541 12.1018C16.8522 13.1913 16.8801 13.8677 16.067 14.9821L16.0367 15.0228C15.908 15.1915 15.487 15.6601 15.2439 15.9245C14.8335 16.3703 14.6385 17.1214 14.7801 17.7099C14.8146 17.8538 15.1896 19.1925 17.7395 21.8264C17.7547 21.8464 17.7705 21.8667 17.7896 21.8847L18.1176 22.2126C18.1367 22.232 18.1583 22.2495 18.1665 22.2537C20.8105 24.8116 22.1483 25.1871 22.2914 25.2214C22.4163 25.2511 22.5517 25.2668 22.6944 25.2668C23.2068 25.2668 23.7371 25.0711 24.0782 24.7577C24.3512 24.5066 24.8413 24.0663 24.9959 23.9532C25.5613 23.5358 25.9986 23.3509 26.4141 23.3509C26.8572 23.3509 27.3151 23.5658 27.9002 24.0481C28.7233 24.7248 29.5707 25.5383 29.6142 26.4387C29.6467 27.1221 29.2391 27.8788 28.3658 28.7522L28.3657 28.7526Z" fill="white"></path></svg>