<svg xmlns="http://www.w3.org/2000/svg" width="439" height="210" viewBox="0 0 439 210" fill="none"><path d="M310.357 112.339L310.01 112.512L283.628 97.2388L283.281 97.0652V66.3446L309.663 51.071L310.01 50.8975L336.392 66.171L336.739 66.3446V97.0652L310.357 112.339ZM310.01 52.4595L284.67 67.0388V96.371L310.01 110.95L335.35 96.371V67.0388L310.01 52.4595Z" fill="#000066"></path><path d="M310.184 190.094L310.011 190.268L289.01 178.118L288.836 177.945V153.299L309.837 141.149H310.011L331.012 153.299L331.185 153.472V178.118L310.184 190.094ZM310.011 142.191L289.704 153.993V177.424L310.011 189.226L330.318 177.424V153.993L310.011 142.191Z" fill="#000066"></path><path d="M373.541 139.589L373.194 139.762L350.978 126.919L350.805 126.745V100.711L373.021 87.8669L373.368 87.6934L395.584 100.537L395.758 100.711V126.745L373.541 139.589ZM373.194 88.9083L351.673 101.405V126.224L373.194 138.721L394.716 126.224V101.405L373.194 88.9083Z" fill="#000066"></path><path d="M425.236 101.403L412.392 94.1135L412.219 93.9399V79.0135L425.062 71.5503H425.236L438.08 79.0135L438.253 79.1871V94.1135L425.236 101.403ZM425.062 72.2445L412.739 79.3606V93.5928L425.062 100.709L437.385 93.5928V79.3606L425.062 72.2445Z" fill="#000066"></path><path d="M373.167 62.525L362.232 56.2768H362.059V43.6067L372.993 37.3584H373.167L384.101 43.6067H384.275V56.2768L373.167 62.525ZM372.993 37.7055L362.579 43.7802V55.9296L372.993 62.0044L383.407 55.9296V43.7802L372.993 37.7055Z" fill="#000066"></path><path d="M372.662 183.674L360.166 176.557H359.992V162.152L372.315 155.036H372.489L384.812 162.152H384.985V176.557L372.662 183.674ZM372.489 155.556L360.513 162.499V176.384L372.489 183.326L384.465 176.384V162.499L372.489 155.556Z" fill="#000066"></path><path d="M334.822 209.012L322.326 201.896H322.152V187.491L334.475 180.375H334.649L346.972 187.491H347.145V201.896L334.822 209.012ZM334.822 180.895L322.847 187.838V201.723L334.822 208.665L346.798 201.723V187.838L334.822 180.895Z" fill="#000066"></path><path d="M252.396 205.889L238.338 198.078L238.164 197.905V181.763L252.049 173.78L252.223 173.606L266.108 181.59L266.281 181.763V197.905L252.396 205.889ZM252.223 174.474L238.858 182.111V197.558L252.223 205.194L265.587 197.558V182.111L252.223 174.474Z" fill="#000066"></path><path d="M208.988 117.024L201.177 112.685H201.004V103.486L208.814 98.9731H208.988L216.798 103.486H216.972V112.511L208.988 117.024ZM208.814 99.4938L201.351 103.833V112.511L208.814 116.85L216.277 112.511V103.833L208.814 99.4938Z" fill="#000066"></path><path d="M247.17 59.5755L235.888 53.3272H235.715V40.31L246.823 33.8882H246.996L258.104 40.31H258.278V53.1537L247.17 59.5755ZM246.996 34.4089L236.236 40.4836V52.8066L246.996 59.0548L257.584 52.8066V40.4836L246.996 34.4089Z" fill="#000066"></path><path d="M283.632 28.681L271.482 21.7384H271.309V7.67983L283.458 0.737305H283.632L295.781 7.67983H295.955V21.7384L283.632 28.681ZM283.458 1.258L271.829 8.02695V21.3913L283.458 28.1603L295.087 21.3913V8.02695L283.458 1.258Z" fill="#000066"></path><path d="M252.56 153.299L252.386 153.473L234.162 143.059L233.988 142.885V121.537L252.212 111.123L252.386 110.95L270.61 121.363L270.784 121.537V142.712L252.56 153.299ZM252.212 111.991L234.683 122.058V142.365L252.212 152.431L269.742 142.365V122.058L252.212 111.991Z" fill="#000066"></path><path d="M284.837 66.6914L257.761 52.6328L257.414 53.1535L284.316 67.3857L284.837 66.6914Z" fill="#000066"></path><path d="M234.491 121.712L216.267 112.166L216.094 112.687L234.318 122.233L234.491 121.712Z" fill="#000066"></path><path d="M310.344 110.95H309.477V141.323H310.344V110.95Z" fill="#000066"></path><path d="M362.768 56.2778L362.421 55.5835L335.172 66.6915L335.519 67.3858L362.768 56.2778Z" fill="#000066"></path><path d="M373.54 62.0054H372.672V88.5605H373.54V62.0054Z" fill="#000066"></path><path d="M412.914 93.9403L412.567 93.2461L394.863 100.883L395.21 101.577L412.914 93.9403Z" fill="#000066"></path><path d="M289.878 153.646L270.265 142.19L269.918 142.885L289.531 154.34L289.878 153.646Z" fill="#000066"></path><path d="M252.544 152.604H251.676V174.126H252.544V152.604Z" fill="#000066"></path><path d="M109.529 100.535L109.182 100.708L82.8002 85.6082L82.4531 85.4346V54.5404L108.835 39.2668L109.182 39.0933L135.563 54.3668L135.911 54.5404V85.261L109.529 100.535ZM109.182 40.6553L83.6681 55.4082V84.7403L109.008 99.3196L134.348 84.7403V55.4082L109.182 40.6553Z" fill="#000066"></path><path d="M109.369 178.464L109.196 178.638L88.1948 166.488L87.8477 166.315V141.669L108.849 129.519L109.022 129.346L130.023 141.495L130.197 141.669V166.315L109.369 178.464ZM109.196 130.561L88.889 142.189V165.62L109.196 177.423L129.503 165.62V142.189L109.196 130.561Z" fill="#000066"></path><path d="M172.731 127.957L172.384 128.13L150.167 115.287L149.82 115.113V89.0788L172.036 76.2351L172.384 76.0615L194.6 88.9052L194.773 89.0788V115.113L172.731 127.957ZM172.384 77.2765L150.862 89.773V114.593L172.384 127.089L193.905 114.593V89.5994L172.384 77.2765Z" fill="#000066"></path><path d="M224.429 89.5989L211.412 82.3093L211.238 82.1357V67.2093L224.082 59.7461H224.256L237.099 67.2093L237.273 67.3829V82.3093L224.429 89.5989ZM224.256 60.4403L211.933 67.5564V81.7886L224.256 88.9047L236.578 81.7886V67.5564L224.256 60.4403Z" fill="#000066"></path><path d="M172.346 50.7204L161.412 44.4721H161.238V31.802L172.173 25.5537H172.346L183.281 31.802H183.454V44.4721L172.346 50.7204ZM172.173 26.0744L161.759 32.1491V44.2985L172.173 50.3732L182.587 44.2985V32.1491L172.173 26.0744Z" fill="#000066"></path><path d="M171.842 172.043L159.345 164.927H159.172V150.348L171.495 143.232H171.668L183.991 150.348H184.165V164.754L171.842 172.043ZM171.668 143.753L159.693 150.695V164.58L171.668 171.523L183.644 164.58V150.695L171.668 143.753Z" fill="#000066"></path><path d="M134.006 197.209L121.51 190.093H121.336V175.687L133.659 168.571H133.832L146.155 175.687H146.329V190.093L134.006 197.209ZM133.832 169.092L121.857 176.034V189.919L133.832 196.862L145.808 189.919V176.034L133.832 169.092Z" fill="#000066"></path><path d="M51.5703 194.257L37.6853 186.273H37.5117V170.132L51.3968 162.148V161.975L65.2818 169.959L65.4554 170.132V186.273L51.5703 194.257ZM51.3968 162.669L38.0324 170.306V185.753L51.3968 193.39L64.7611 185.753V170.306L51.3968 162.669Z" fill="#000066"></path><path d="M8.17309 105.221L0.189184 100.882H0.015625V91.8569L7.99953 87.3442H8.17309L15.9834 91.8569H16.157V100.882L8.17309 105.221ZM7.99953 87.6914L0.53631 92.0304V100.709L7.99953 104.874L15.4627 100.535V91.8569L7.99953 87.6914Z" fill="#000066"></path><path d="M46.1839 47.7708L35.0759 41.5226H34.9023V28.5053L46.0104 22.0835H46.1839L57.292 28.5053H57.4655V41.349L46.1839 47.7708ZM46.1839 22.6042L35.423 28.8525V41.1754L46.1839 47.2501L56.7713 41.1754V28.8525L46.1839 22.6042Z" fill="#000066"></path><path d="M51.5752 141.495L51.4016 141.669L33.1775 131.255L33.0039 131.082V109.733L51.228 99.3196L51.4016 99.146L69.6257 109.56L69.7993 109.733V130.908L51.5752 141.495ZM51.4016 100.187L33.8717 110.254V130.561L51.4016 140.628L68.9315 130.561V110.254L51.4016 100.187Z" fill="#000066"></path><path d="M83.8392 55.0608L56.937 40.8286L56.5898 41.5229L83.4921 55.5815L83.8392 55.0608Z" fill="#000066"></path><path d="M33.6689 110.081L15.4448 100.361L15.0977 100.882L33.4953 110.602L33.6689 110.081Z" fill="#000066"></path><path d="M109.52 99.3179H108.652V129.691H109.52V99.3179Z" fill="#000066"></path><path d="M161.944 44.474L161.597 43.7798L134.348 54.8878L134.695 55.7556L161.944 44.474Z" fill="#000066"></path><path d="M172.715 50.2012H171.848V76.7563H172.715V50.2012Z" fill="#000066"></path><path d="M212.101 82.3085L211.754 81.6143L194.051 89.251L194.398 89.9453L212.101 82.3085Z" fill="#000066"></path><path d="M89.0613 141.842L69.4487 130.387L69.1016 131.081L88.5406 142.536L89.0613 141.842Z" fill="#000066"></path><path d="M51.7272 140.975H50.8594V162.496H51.7272V140.975Z" fill="#000066"></path></svg>