<svg xmlns="http://www.w3.org/2000/svg" width="40" height="40" viewBox="0 0 40 40" fill="none"><rect width="40" height="40" fill="white"></rect><path d="M31.6727 4.91206C25.1222 -1.63735 14.4639 -1.63735 7.91264 4.91206C1.36245 11.4622 1.36245 22.1209 7.91264 28.6712L18.8531 39.6107C19.3722 40.1298 20.2137 40.1298 20.7328 39.6107L31.6733 28.6702C38.2235 22.12 38.2235 11.4614 31.6733 4.91206H31.6727ZM29.793 26.7911L19.7926 36.7915L9.79218 26.7911C4.27829 21.2772 4.27829 12.3052 9.79218 6.7912H9.7918C12.4466 4.14329 16.0428 2.6562 19.7922 2.6562C23.5414 2.6562 27.1379 4.14329 29.7926 6.7912C35.3065 12.3051 35.3065 21.2761 29.7926 26.7911H29.793Z" fill="#666666"></path><path d="M19.7914 9.08644C17.3959 9.08644 15.1365 10.2006 13.6783 12.1009C12.2201 14.0015 11.7287 16.4721 12.3484 18.7859C12.9685 21.1001 14.6295 22.9938 16.8426 23.9105C19.0557 24.8272 21.5692 24.6624 23.6438 23.4647C25.7183 22.267 27.118 20.1727 27.4306 17.7974C27.7435 15.4225 26.9335 13.0373 25.2399 11.3433C23.798 9.89343 21.8358 9.08082 19.7913 9.08645L19.7914 9.08644ZM23.3602 20.3604C22.4139 21.3071 21.13 21.8391 19.7914 21.8391C18.4528 21.8391 17.1692 21.3074 16.2226 20.3607C15.2759 19.4144 14.7442 18.1306 14.7442 16.7919C14.7442 15.4533 15.2759 14.1694 16.2226 13.2231C17.1689 12.2764 18.4528 11.7448 19.7914 11.7448C21.13 11.7448 22.4139 12.2764 23.3602 13.2231C24.3149 14.1652 24.8519 15.4507 24.8523 16.7919C24.8523 18.1328 24.3149 19.4183 23.3602 20.3604Z" fill="#666666"></path></svg>