<svg xmlns="http://www.w3.org/2000/svg" width="40" height="46" viewBox="0 0 40 46" fill="none"><path d="M9.64154 27.7173H7.73438V30.5617H9.64154C10.4072 30.5617 11.013 29.8872 11.013 29.1787C11.0114 28.3803 10.4072 27.7174 9.64154 27.7174V27.7173Z" fill="#6565E1"></path><path d="M17.3176 27.7737H15.4219V32.8907H17.3176C20.4018 32.891 20.5376 27.7737 17.3176 27.7737Z" fill="#6565E1"></path><path d="M32.8569 21.4283H1.42856C0.642852 21.4283 0 22.0712 0 22.8569V37.1425C0 37.9282 0.642852 38.5711 1.42856 38.5711H32.8569C33.6439 38.5711 34.2854 37.9282 34.2854 37.1425V22.8569C34.2854 22.0712 33.6439 21.4283 32.8569 21.4283ZM9.64237 31.9899H7.7352V33.4984C7.7352 34.001 7.41537 34.2854 7.00371 34.2854C6.62648 34.2854 6.22788 34.001 6.22788 33.4968V27.067C6.22788 26.6898 6.52507 26.2772 7.00371 26.2772L9.64238 26.2769C11.128 26.2769 12.465 27.2711 12.465 29.1783C12.4638 30.9841 11.128 31.9898 9.64238 31.9898L9.64237 31.9899ZM17.421 34.2855H14.7026C14.3253 34.2855 13.914 34.0782 13.914 33.5769V27.0897C13.914 26.6784 14.3253 26.3812 14.7026 26.3812H17.3183C22.5379 26.3812 22.4238 34.2854 17.421 34.2854L17.421 34.2855ZM27.5997 27.8655H24.2742V29.6812H27.1871C27.6001 29.6812 28.0098 30.0925 28.0098 30.4927C28.0098 30.8699 27.5997 31.177 27.1871 31.177H24.2742V33.5756C24.2742 33.9755 23.9897 34.2841 23.5899 34.2841C23.087 34.2841 22.7783 33.9755 22.7783 33.5756V27.0884C22.7783 26.677 23.0883 26.3799 23.5899 26.3799H27.5997C28.1026 26.3799 28.3982 26.677 28.3982 27.0884C28.3982 27.4554 28.1026 27.8655 27.5997 27.8655L27.5997 27.8655Z" fill="#6565E1"></path><path d="M38.5714 10.8366L29.1633 1.42856C28.3374 0.600158 26.8862 0 25.7147 0H10.0005C7.63769 0 5.71484 1.92284 5.71484 4.28568V18.5713C5.71484 19.3611 6.35355 19.9998 7.1434 19.9998C7.93326 19.9998 8.57196 19.3611 8.57196 18.5713V4.28568C8.57196 3.4987 9.21194 2.85712 10.0005 2.85712H22.8576C24.436 2.85712 25.7147 4.13711 25.7147 5.71424V11.0713C25.7147 12.8398 27.1633 14.2856 28.9289 14.2856H34.286C35.8645 14.2856 37.1432 15.5656 37.1432 17.1427V41.4282C37.1432 42.2152 36.5045 42.8568 35.7146 42.8568H10.0005C9.21194 42.8568 8.57196 42.2152 8.57196 41.4282C8.57196 40.6384 7.93326 39.9997 7.1434 39.9997C6.35355 39.9997 5.71484 40.6384 5.71484 41.4282C5.71484 43.7911 7.63769 45.7139 10.0005 45.7139H35.7146C38.0774 45.7139 40.0003 43.7911 40.0003 41.4282V14.2856C40.0003 13.1156 39.4002 11.6641 38.5717 10.837L38.5714 10.8366Z" fill="#6565E1"></path></svg>