<svg xmlns="http://www.w3.org/2000/svg" width="32" height="32" viewBox="0 0 32 32" fill="none"><circle cx="16" cy="16" r="16" fill="#1B9D49"></circle><path d="M9 6V25.7931H23V10.8276H18.6552C18.4024 10.8276 18.1725 10.5976 18.1725 10.3449V6.00004L9 6ZM19.1379 6.48272V9.86194H22.5172L19.1379 6.48272ZM11.6552 9.62069H15.0344C15.3011 9.62069 15.5171 9.83688 15.5171 10.1034C15.5171 10.3701 15.3009 10.5861 15.0344 10.5861H11.6552C11.3885 10.5861 11.1725 10.3699 11.1725 10.1034C11.1725 9.8367 11.3886 9.62069 11.6552 9.62069ZM11.6552 13.4828H20.3448C20.6115 13.4828 20.8275 13.699 20.8275 13.9656C20.8275 14.2323 20.6114 14.4483 20.3448 14.4483H11.6552C11.3885 14.4483 11.1725 14.2321 11.1725 13.9656C11.1725 13.6989 11.3886 13.4828 11.6552 13.4828ZM11.6552 17.345H20.3448C20.6115 17.345 20.8275 17.5612 20.8275 17.8277C20.8275 18.0944 20.6114 18.3104 20.3448 18.3104H11.6552C11.3885 18.3104 11.1725 18.0942 11.1725 17.8277C11.1725 17.561 11.3886 17.345 11.6552 17.345ZM11.6552 21.2072H20.3448C20.6115 21.2072 20.8275 21.4233 20.8275 21.6899C20.8275 21.9566 20.6114 22.1726 20.3448 22.1726H11.6552C11.3885 22.1726 11.1725 21.9564 11.1725 21.6899C11.1725 21.4232 11.3886 21.2072 11.6552 21.2072Z" fill="white"></path></svg>