<svg xmlns="http://www.w3.org/2000/svg" width="42" height="42" viewBox="0 0 42 42" fill="none"><circle cx="21" cy="21" r="20.5" fill="white" stroke="#E6E6F4"></circle><path d="M13.5122 12.9267C14.0002 12.9267 14.4683 12.7329 14.8134 12.3876C15.1587 12.0426 15.3525 11.5745 15.3525 11.0864C15.3525 10.5983 15.1587 10.1303 14.8134 9.78522C14.4684 9.43996 14.0003 9.24609 13.5122 9.24609C13.0242 9.24609 12.5561 9.43996 12.211 9.78522C11.8657 10.1303 11.6719 10.5983 11.6719 11.0864C11.6709 11.5747 11.8645 12.0433 12.2098 12.3885C12.5551 12.734 13.0239 12.9274 13.5122 12.9267L13.5122 12.9267Z" fill="#008E48"></path><path d="M24.3768 12.3696H17.6215C17.2908 12.3691 16.9674 12.467 16.6924 12.6508C16.4175 12.8346 16.2032 13.0959 16.0772 13.4016C15.9935 13.6007 15.9515 13.815 15.9532 14.0309V22.011C15.9527 22.3784 16.1931 22.7028 16.5449 22.809C16.6231 22.8325 16.7042 22.8441 16.7857 22.8433C17.007 22.8443 17.2196 22.757 17.3765 22.6008C17.5334 22.4446 17.6214 22.2325 17.6214 22.011V15.1316H18.282V34.1292C18.3043 34.5506 18.5421 34.9309 18.9113 35.1355C19.2806 35.3399 19.729 35.3399 20.0983 35.1355C20.4673 34.9309 20.7053 34.5506 20.7276 34.1292V23.1222H21.2711V34.1292C21.2934 34.5506 21.5312 34.9309 21.9004 35.1355C22.2697 35.3399 22.7181 35.3399 23.0874 35.1355C23.4564 34.9309 23.6944 34.5506 23.7167 34.1292V15.1248H24.3773V22.0043H24.377C24.4053 22.4443 24.7705 22.7867 25.2113 22.7867C25.652 22.7867 26.017 22.4443 26.0453 22.0043V14.0376C26.0453 13.5952 25.8696 13.171 25.5568 12.8581C25.2439 12.5452 24.8194 12.3694 24.377 12.3694L24.3768 12.3696Z" fill="#008E48"></path><path d="M20.9975 11.1276C21.5448 11.1276 22.0698 10.9102 22.4568 10.5232C22.8438 10.136 23.0615 9.61122 23.0615 9.06369C23.0615 8.5164 22.8438 7.99142 22.4568 7.60439C22.0698 7.21738 21.5448 7 20.9975 7C20.4502 7 19.9253 7.21738 19.5382 7.60439C19.1512 7.99141 18.9336 8.51641 18.9336 9.06369C18.9336 9.61122 19.1512 10.136 19.5382 10.5232C19.9252 10.9102 20.4502 11.1276 20.9975 11.1276Z" fill="#008E48"></path><path d="M15.312 22.018V14.0483H10.4963C10.1359 14.0476 9.78724 14.1774 9.51538 14.414C9.2433 14.6506 9.06622 14.9776 9.01728 15.3349C9.00648 15.4008 9.00072 15.4675 9 15.5342V22.6784C9.00192 23.0899 9.33495 23.4229 9.74642 23.4248C10.1586 23.4248 10.4928 23.0906 10.4928 22.6784V16.5146H11.0845V33.5104C11.0845 33.9013 11.293 34.2624 11.6313 34.4577C11.9699 34.6532 12.3866 34.6532 12.7252 34.4577C13.0635 34.2624 13.272 33.9013 13.272 33.5104V23.6661H13.7742V33.5104C13.7761 33.7964 13.8899 34.0704 14.0909 34.2734C14.2922 34.4766 14.565 34.593 14.851 34.5973C15.1411 34.5973 15.4192 34.4821 15.6243 34.277C15.8295 34.0719 15.9447 33.7938 15.9447 33.5037V23.2257C15.5485 22.9515 15.3119 22.5002 15.3119 22.0184L15.312 22.018Z" fill="#008E48"></path><path d="M28.4809 12.9507C28.969 12.9507 29.4371 12.7568 29.7821 12.4118C30.1274 12.0665 30.3213 11.5984 30.3213 11.1103C30.3213 10.6223 30.1274 10.1542 29.7821 9.80915C29.4371 9.46388 28.969 9.27002 28.4809 9.27002C27.9929 9.27002 27.5248 9.46388 27.1798 9.80915C26.8345 10.1542 26.6406 10.6223 26.6406 11.1103C26.6416 11.5981 26.8357 12.0658 27.1807 12.4106C27.5257 12.7556 27.9932 12.9497 28.4809 12.9506L28.4809 12.9507Z" fill="#008E48"></path><path d="M31.5025 14.0618H26.6871V22.0284C26.6871 22.5141 26.4493 22.9688 26.0508 23.2461V33.5204C26.0508 33.8105 26.166 34.0888 26.3711 34.2939C26.5762 34.4991 26.8543 34.6142 27.1444 34.6142C27.4347 34.6142 27.7128 34.4991 27.918 34.2939C28.1231 34.0888 28.2383 33.8105 28.2383 33.5204V23.6797H28.7232L28.7234 33.5204C28.7234 33.9112 28.9319 34.2723 29.2702 34.4676C29.6088 34.6632 30.0256 34.6632 30.3641 34.4676C30.7024 34.2723 30.9109 33.9112 30.9109 33.5204V16.5245H31.5026V22.6884C31.5031 22.982 31.6756 23.2481 31.9434 23.3683C32.2114 23.4885 32.5247 23.4405 32.7443 23.2457C32.9026 23.1034 32.9938 22.9012 32.9955 22.6883V15.5546C33.0008 15.4872 33.0008 15.4193 32.9955 15.3516C32.9475 14.9913 32.7692 14.6611 32.494 14.4234C32.2188 14.1856 31.8661 14.057 31.5026 14.0618L31.5025 14.0618Z" fill="#008E48"></path></svg>