<svg xmlns="http://www.w3.org/2000/svg" width="56" height="56" viewBox="0 0 56 56" fill="none"><circle cx="28" cy="28" r="28" fill="#008E48"></circle><path d="M19.5424 26.4117C19.5548 26.3867 19.5674 26.3743 19.5674 26.3743C19.8295 25.8255 20.4529 24.491 20.6401 23.5928C20.8271 22.7321 21.1516 21.8841 21.7502 21.2481C21.7626 21.2357 21.7753 21.2357 21.7876 21.2231C21.9496 21.0484 22.0744 20.8488 22.1242 20.6244C22.2865 20.0008 22.5856 18.6787 22.6604 17.6436C22.7479 16.3839 23.6831 15.436 25.0052 15.249C25.0052 15.249 26.0405 14.5132 26.764 14.4507L26.976 13.1036C26.976 13.1036 26.5396 12.4302 26.502 11.9811C26.502 11.9811 25.9657 11.6192 26.502 10.9458C26.502 10.9458 26.1404 9.17463 28.0985 9C30.0567 9.17462 29.6951 10.9458 29.6951 10.9458C30.2313 11.6192 29.6951 11.9811 29.6951 11.9811C29.6577 12.4301 29.221 13.1036 29.221 13.1036L29.4331 14.4507C30.1566 14.5132 31.1919 15.249 31.1919 15.249C32.514 15.436 33.4495 16.3839 33.5366 17.6436C33.6114 18.6789 33.9109 20.001 34.0729 20.6244C34.1226 20.8488 34.2475 21.0484 34.4094 21.2231C34.4218 21.2354 34.4345 21.2354 34.4468 21.2481C35.0455 21.8841 35.3697 22.7324 35.557 23.5928C35.7439 24.491 36.3676 25.8255 36.6296 26.3743C36.6296 26.3743 36.642 26.3867 36.6547 26.4117C36.8293 26.6361 37.8021 28.033 36.6296 28.3075C36.1932 28.4073 35.9312 28.3325 35.7689 28.1829C35.6567 28.0831 35.5819 27.9459 35.5569 27.821C35.4821 27.5716 35.5195 27.3346 35.5195 27.3346C35.4945 27.0725 35.4321 26.8731 35.3823 26.7109C35.2949 26.4862 35.1703 26.2742 35.0207 26.0872C33.6362 24.3284 33.1123 23.1064 32.9254 22.3953C32.7257 21.6969 32.4516 21.0358 32.1645 20.3748C31.869 19.7022 31.7512 19.2101 31.7068 18.8873C31.6927 18.7841 31.5484 18.7675 31.5155 18.8662C30.8978 20.724 31.1618 23.4023 31.3617 24.7818C31.4765 25.2468 31.5898 25.7074 31.7045 26.1725C32.6298 28.8375 32.4513 32.744 32.2393 35.0047C32.1645 35.8778 32.2269 36.7509 32.439 37.6116C32.888 39.3327 32.7258 43.1993 32.6386 44.8082C32.6136 45.2947 32.726 45.7688 32.9504 46.1927L33.2499 46.7416C33.8111 47.6147 33.1501 47.6147 33.1501 47.6147H31.6784C31.3789 47.6147 31.1298 47.3529 31.1422 47.0411C31.2296 44.7213 30.9552 43.0123 30.818 42.3515C30.7806 42.1519 30.7058 41.9899 30.631 41.8027C30.1695 40.6802 30.0948 38.4476 30.0821 37.5995C30.0821 37.4125 30.0447 37.2253 29.9823 37.0383C28.124 31.7124 28.2081 29.0057 28.2081 29.0057H27.9896C27.9896 29.0057 28.0736 31.7121 26.2153 37.0383C26.1529 37.2253 26.1155 37.4125 26.1155 37.5995C26.1031 38.4476 26.0281 40.6802 25.5667 41.8027C25.4919 41.9897 25.4171 42.1519 25.3797 42.3515C25.2425 43.0126 24.968 44.7214 25.0555 47.0411C25.0678 47.3529 24.8184 47.6147 24.5192 47.6147H23.0476C23.0476 47.6147 22.3865 47.6147 22.9477 46.7416L23.2472 46.1927C23.4716 45.7687 23.5841 45.2946 23.559 44.8082C23.4716 43.1993 23.3096 39.3328 23.7587 37.6116C23.9707 36.7509 24.0331 35.8778 23.9583 35.0047C23.7463 32.7438 23.5677 28.8376 24.4931 26.1725C24.6078 25.7074 24.7212 25.2468 24.8359 24.7818C25.0361 23.4026 25.2998 20.724 24.6821 18.8662C24.6492 18.7675 24.5052 18.7841 24.4909 18.8873C24.4464 19.2098 24.3284 19.7019 24.0331 20.3748C23.7463 21.0358 23.4719 21.6969 23.2722 22.3953C23.0853 23.1061 22.5614 24.3284 21.1769 26.0872C21.0273 26.2742 20.9025 26.4862 20.8153 26.7109C20.7655 26.8729 20.7031 27.0725 20.6781 27.3346C20.6531 27.4842 20.6407 27.634 20.6407 27.821C20.6157 27.9459 20.5409 28.0831 20.4287 28.1829C20.2662 28.3325 20.0041 28.4073 19.5677 28.3075C18.3952 28.033 19.3681 26.6361 19.5427 26.4117H19.5424Z" fill="white"></path></svg>