<svg xmlns="http://www.w3.org/2000/svg" width="56" height="56" viewBox="0 0 56 56" fill="none"><circle cx="28" cy="28" r="28" fill="#008E48"></circle><path d="M28.016 28.7352C32.5452 28.7352 36.2507 24.6927 36.2507 19.677C36.2507 14.6614 32.5452 10.6562 28.016 10.6562C23.4867 10.6562 19.7812 14.6988 19.7812 19.7145C19.7812 24.7301 23.4867 28.7352 28.016 28.7352Z" fill="white"></path><path d="M35.3896 28.7354C35.3896 28.7354 32.2455 31.1309 28.0157 31.0935C23.8982 31.0562 20.6419 28.7354 20.6419 28.7354C15.9257 28.7354 12.0703 29.9333 12.0703 34.6867V41.0875C12.0703 41.0875 17.9843 44.0444 25.6576 44.3439L27.3046 34.9863L26.2566 33.2643L27.155 32.179C27.4171 32.2163 27.7163 32.2163 28.0158 32.2163C28.3153 32.2163 28.6148 32.2163 28.8766 32.179L29.775 33.2643L28.7267 34.9863L30.3361 44.2316C39.3194 43.5204 43.9983 41.0875 43.9983 41.0875L43.9985 34.6495C43.9609 29.9331 40.1056 28.7354 35.3895 28.7354L35.3896 28.7354Z" fill="white"></path></svg>