<svg xmlns="http://www.w3.org/2000/svg" width="264" height="260" viewBox="0 0 264 260" fill="none"><rect width="264" height="260" fill="#ECF1FA"></rect><path fill-rule="evenodd" clip-rule="evenodd" d="M155.368 139.248C148.462 143.496 140.421 145.527 132.325 145.068C124.239 145.524 116.204 143.493 109.306 139.248C99.7711 139.487 91.7804 145.024 85.4161 153.582C73.6031 169.347 67.2393 195.298 66.6758 216.732H197.998C197.412 195.015 190.918 168.714 178.844 153.016C172.523 144.785 164.683 139.486 155.367 139.248L155.368 139.248Z" fill="white"></path><path fill-rule="evenodd" clip-rule="evenodd" d="M168.92 70.8606C166.747 55.0075 151.546 42.1719 128.937 43.0418C121.243 43.1448 113.797 45.7761 107.745 50.5283C101.693 55.2806 97.3731 61.8914 95.4491 69.3415C92.7345 80.3304 80.4853 112.233 66 122.091C74.491 127.39 100.053 133.21 112.626 132.667H112.627C118.55 136.244 125.363 138.073 132.281 137.944C140.469 137.944 142.988 137.227 152.326 131.037V131.039C162.323 131.125 172.301 130.171 182.101 128.194C178.886 122.177 171.263 87.9318 168.918 70.8606L168.92 70.8606Z" fill="white"></path></svg>