<svg xmlns="http://www.w3.org/2000/svg" width="56" height="56" viewBox="0 0 56 56" fill="none"><circle cx="28" cy="28" r="28" fill="#008E48"></circle><path d="M31.9546 16.7027H24.5192C23.2044 16.7027 22.1394 17.5944 22.1394 18.9101L19 35.158C19 36.4702 20.0651 37.326 21.3798 37.326H23.9146L25.7452 48.4357C25.7452 49.2352 26.3947 49.9998 27.1955 49.9998H29.2798C30.0797 49.9998 30.7305 49.2352 30.7305 48.4357L32.5623 37.326H35.0955C36.4115 37.326 37.4757 36.3837 37.4757 35.0717L34.3357 18.847C34.3357 17.5317 33.2709 16.7021 31.9546 16.7021V16.7027Z" fill="white"></path><path d="M32.2309 10.9905C32.2309 13.1944 30.4441 14.9809 28.2405 14.9809C26.0365 14.9809 24.25 13.1944 24.25 10.9905C24.25 8.78652 26.0365 7 28.2405 7C30.4441 7 32.2309 8.78652 32.2309 10.9905" fill="white"></path><path d="M28 25.25C28 25.25 30.5025 23.9819 30.943 22.1098C31.3931 20.1968 29.063 19.1631 28 20.8515C26.9367 19.1631 24.6068 20.1967 25.0571 22.1098C25.4973 23.9819 28 25.25 28 25.25Z" fill="#008E48"></path></svg>